<svg width="42" height="37" viewBox="0 0 42 37" fill="none" xmlns="http://www.w3.org/2000/svg">
<path d="M26.887 24.9682C31.5113 25.0887 33.6734 23.2879 33.846 23.1365L33.8464 23.1362C34.0905 22.9218 34.222 22.5985 34.1833 22.2672C34.1452 21.9411 33.9508 21.6577 33.6668 21.4993L33.6654 21.4986C32.4208 20.8099 31.73 19.2222 31.3712 17.3932C31.0185 15.5953 31.0173 13.7285 31.0173 12.6796C31.0173 6.61249 26.7834 1.69781 21.2436 1.61746C21.1939 1.61561 21.0994 1.61426 21.0821 1.61426H21.0821H21.0821H21.0821H21.082H21.082H21.082H21.082H21.082H21.082H21.0819H21.0819H21.0819H21.0819H21.0819H21.0819H21.0819H21.0818H21.0818H21.0818H21.0818H21.0818H21.0818H21.0817H21.0817H21.0817H21.0817H21.0817H21.0817H21.0816H21.0816H21.0816H21.0816H21.0816H21.0816H21.0815H21.0815H21.0815H21.0815H21.0815H21.0815H21.0814H21.0814H21.0814H21.0814H21.0814H21.0814H21.0813H21.0813H21.0813H21.0813H21.0813H21.0813H21.0812H21.0812H21.0812H21.0812H21.0812H21.0812H21.0811H21.0811H21.0811H21.0811H21.0811H21.0811L21.081 2.11426V1.61425L21.0783 1.61427C15.478 1.64461 10.9819 6.54493 10.9819 12.4666C10.9819 13.5155 10.9807 15.3826 10.628 17.1806C10.2692 19.0097 9.57837 20.5973 8.3339 21.2855L8.33343 21.2857C8.03588 21.4507 7.83948 21.751 7.81203 22.0904L7.8118 22.0934C7.78614 22.4373 7.94037 22.7649 8.20948 22.9699L8.21217 22.9719C8.36015 23.083 11.2504 25.2325 14.9914 24.9591C14.4288 25.8464 13.5146 26.5749 12.2133 27.1225L12.2129 27.1227C12.009 27.2087 11.558 27.3156 10.9448 27.4566L10.9446 27.4566L10.9276 27.4605C9.5908 27.7684 7.61546 28.2233 5.81382 29.1858C3.99439 30.1579 2.30967 31.6705 1.63568 34.1061L1.63529 34.1075C1.48331 34.6631 1.82664 35.2103 2.3656 35.351L2.36557 35.3511L2.37551 35.3535C2.9031 35.4798 3.4677 35.1904 3.62174 34.6393L3.62212 34.6379C4.1173 32.8464 5.37127 31.7006 6.86915 30.9171C8.3776 30.1282 10.0842 29.7326 11.4146 29.4255L11.4517 29.417C12.0797 29.2725 12.64 29.1435 13.0221 28.9838L13.0231 28.9834C16.2103 27.6424 17.2889 25.4554 17.6101 23.8272L17.6101 23.827C17.6801 23.4718 17.5524 23.108 17.277 22.8727C17.0075 22.6404 16.6384 22.5639 16.2972 22.667L16.2959 22.6673C14.0422 23.3543 11.9115 22.6593 10.632 22.0385C11.79 20.8052 12.3783 19.0742 12.6859 17.4216C13.0395 15.5214 13.0394 13.6224 13.0394 12.4768V12.4666C13.0394 7.59117 16.6807 3.67018 21.1159 3.63646L21.1181 3.63658L21.1544 3.63864L21.1921 3.64078L21.2067 3.64158L21.2139 3.64194L21.2197 3.64217C21.2198 3.64218 21.2248 3.64238 21.2317 3.64248C25.5846 3.7024 28.9598 7.51537 28.9598 12.6796V12.6898C28.9598 13.8359 28.9598 15.7381 29.3149 17.6414C29.622 19.2873 30.2079 21.0108 31.3577 22.2434C30.2766 22.6927 28.377 23.1728 25.5264 22.8433C25.1937 22.7972 24.8698 22.9245 24.6526 23.1512C24.4258 23.386 24.3254 23.7167 24.389 24.0399C24.7092 25.6686 25.7891 27.8555 28.9761 29.1964L28.9771 29.1968C29.3846 29.3673 29.985 29.4929 30.654 29.6328L30.677 29.6377C31.9954 29.9138 33.6828 30.2703 35.1733 31.0212C36.6522 31.7663 37.8886 32.8748 38.3771 34.6401L38.3773 34.6406C38.505 35.1003 38.9273 35.3857 39.3698 35.3857C39.4609 35.3857 39.5462 35.3733 39.6249 35.3542L39.625 35.3543L39.6336 35.352C40.1728 35.2112 40.5161 34.6627 40.3638 34.1081L40.3635 34.107C39.6925 31.6849 38.0159 30.2071 36.2056 29.2739C34.4141 28.3505 32.4505 27.939 31.1229 27.6608L31.1068 27.6574L31.1063 27.6573L31.0836 27.6525C30.7817 27.5889 30.5092 27.5315 30.2796 27.4768C30.0365 27.4189 29.8741 27.3713 29.7859 27.3339L29.7847 27.3334C28.3873 26.7459 27.4355 25.948 26.887 24.9682ZM21.1074 3.63601L21.107 3.63598L21.1074 3.63601Z" fill="#3561FF" stroke="#3561FF"/>
</svg>
