<svg width="37" height="35" viewBox="0 0 37 35" fill="none" xmlns="http://www.w3.org/2000/svg">
<path d="M30.3035 17.6851L30.3027 17.6858C30.2887 17.6971 30.2745 17.7087 30.2601 17.7205C29.9222 17.9963 29.4514 18.3805 28.8022 18.3805C28.1705 18.3805 27.6274 18.1002 27.238 17.7435C26.8589 17.3962 26.5758 16.9307 26.5069 16.4779C26.4946 16.4065 26.4969 16.3469 26.4982 16.319C26.4988 16.3079 26.4999 16.2895 26.5001 16.2865L26.5002 16.2861C26.5002 16.2855 26.5002 16.2849 26.5003 16.2845V12.5417C26.5003 11.809 26.2941 11.0935 25.9199 10.5752C25.5551 10.0699 25.0338 9.75 24.3423 9.75H20.3944C20.3621 9.75 20.3234 9.74885 20.2804 9.74417C19.5881 9.70308 19.0796 9.48098 18.7526 9.10125C18.43 8.72668 18.3535 8.27839 18.3535 7.92897C18.3535 7.239 18.7395 6.79131 18.9788 6.51387C18.985 6.50661 18.9912 6.49947 18.9972 6.49245C19.163 6.29957 19.2851 6.15398 19.3779 5.95246C19.468 5.75667 19.5425 5.47817 19.5425 5.02909C19.5425 4.28116 19.2242 3.67895 18.6443 3.24883C18.0506 2.80853 17.1547 2.53125 16.0006 2.53125C14.8408 2.53125 13.9201 2.8147 13.3037 3.26227C12.6991 3.70121 12.3717 4.30523 12.3717 5.02909C12.3717 5.47899 12.446 5.75745 12.5359 5.95294C12.6284 6.15401 12.7504 6.29926 12.9164 6.49187L12.9166 6.49213C12.9227 6.49916 12.9288 6.50631 12.9351 6.51358C13.1745 6.79125 13.5597 7.23788 13.5597 7.92794C13.5597 8.28211 13.4808 8.73693 13.1532 9.11391C12.8187 9.49884 12.2986 9.71883 11.592 9.74729M30.3035 17.6851L11.5631 9.24811C11.548 9.24908 11.5338 9.25 11.5187 9.25H5.40387C3.79492 9.25 2.00097 10.5205 2.00097 12.3438V16.1718L2.45175 16.1535C2.46736 16.1417 2.48373 16.1292 2.50097 16.1158M30.3035 17.6851C30.766 17.3073 31.1893 16.9688 32.0001 16.9688C32.7443 16.9688 33.3467 17.2914 33.7789 17.8856C34.2215 18.4941 34.5 19.4123 34.5 20.5938C34.5 21.8559 34.0984 22.7228 33.5586 23.2721C33.014 23.8262 32.2963 24.0909 31.6041 24.0909C31.1775 24.0909 30.9157 24.0155 30.7324 23.9252C30.5417 23.8313 30.4029 23.7071 30.2155 23.5349C30.2074 23.5275 30.1991 23.5198 30.1907 23.512C29.9256 23.2677 29.485 22.8616 28.8022 22.8616C28.1703 22.8616 27.627 23.1423 27.2375 23.4992C26.8585 23.8466 26.5752 24.3125 26.5068 24.7657C26.4946 24.8369 26.4969 24.8963 26.4982 24.9242C26.4984 24.9289 26.4988 24.9348 26.4991 24.9404C26.4996 24.9492 26.5002 24.957 26.5002 24.9571C26.5002 24.9577 26.5002 24.9583 26.5003 24.9587V29.7956C26.5003 30.5071 26.3135 31.1892 25.9556 31.6794C25.6106 32.1519 25.0934 32.4688 24.3423 32.4688H20.4965C20.4989 32.466 20.5013 32.4631 20.5037 32.4603C20.5038 32.4602 20.5038 32.4602 20.5038 32.4602L20.5116 32.4511C20.6951 32.2375 20.9602 31.929 21.1724 31.4797C21.3897 31.0197 21.5424 30.4342 21.5424 29.6615C21.5424 28.5262 21.0961 27.3817 20.1535 26.5248C19.2106 25.6676 17.8101 25.1324 15.9566 25.1324C14.3518 25.1324 12.9627 25.5595 11.9633 26.3513C10.9543 27.1508 10.3717 28.3015 10.3717 29.6615C10.3717 30.4341 10.5241 31.0195 10.7413 31.4796C10.9543 31.9308 11.2206 32.2399 11.405 32.454L11.4102 32.46C11.4103 32.4601 11.4104 32.4602 11.4104 32.4603C11.4129 32.4632 11.4153 32.466 11.4177 32.4688H5.40387C4.70435 32.4688 3.9742 32.1242 3.41051 31.5656C2.84657 31.0067 2.50097 30.2852 2.50097 29.5966V25.449C2.5334 25.4762 2.56827 25.5058 2.60597 25.5379L2.60715 25.5389C3.12228 25.9795 3.99567 26.7264 5.53287 26.7264C8.03482 26.7264 10.5007 24.1647 10.5007 20.5938C10.5007 16.9781 7.96883 14.9375 5.50087 14.9375C3.9852 14.9375 3.13278 15.6144 2.62194 16.0205M30.3035 17.6851L2.62194 16.0205M11.592 9.74729C11.5896 9.74739 11.5872 9.74748 11.5849 9.74757L11.5657 9.24794L11.5979 9.7469L11.5945 9.74712C11.5937 9.74718 11.5928 9.74723 11.592 9.74729ZM11.592 9.74729C11.5773 9.74825 11.5492 9.75 11.5187 9.75H5.40387C4.72318 9.75 3.98498 10.0221 3.42061 10.496C2.86106 10.966 2.50097 11.6075 2.50097 12.3438V16.1158M2.50097 16.1158C2.53718 16.0877 2.5772 16.0561 2.62194 16.0205M2.50097 16.1158L2.62194 16.0205M11.3162 7.71875H5.40387C2.81406 7.71875 0.501 9.83976 0.501 12.3438V16.1924V16.2021L0.50138 16.2119C0.523627 16.7818 0.692951 17.297 1.02825 17.6775C1.371 18.0664 1.8502 18.2712 2.39296 18.2712C3.03664 18.2712 3.50498 17.8977 3.81772 17.6483C3.82961 17.6389 3.84127 17.6296 3.85272 17.6205C4.28188 17.2811 4.67731 16.9688 5.50087 16.9688C6.89783 16.9688 8.50077 18.1673 8.50077 20.5938C8.50077 21.8363 8.0822 22.8745 7.49427 23.5951C6.89917 24.3244 6.1629 24.6952 5.53187 24.6952C4.73254 24.6952 4.33398 24.3601 3.89 23.9822C3.87746 23.9715 3.86464 23.9605 3.85153 23.9493C3.53612 23.6789 3.05554 23.2669 2.39196 23.2669C1.84929 23.2669 1.36927 23.4721 1.02617 23.8649C0.690967 24.2487 0.522471 24.7689 0.500365 25.3473L0.5 25.3568V25.3664L0.5 29.5966L0.5 29.5968C0.50112 32.1775 2.82373 34.5 5.40387 34.5H11.5327H11.5433L11.5538 34.4996C12.1131 34.4759 12.6174 34.2914 12.9871 33.943C13.3613 33.5903 13.5597 33.1045 13.5597 32.5604C13.5597 31.8703 13.1745 31.4237 12.9351 31.146C12.9288 31.1387 12.9227 31.1316 12.9166 31.1246L12.9164 31.1243C12.7504 30.9317 12.6284 30.7864 12.5359 30.5854C12.4459 30.3901 12.3717 30.1119 12.3717 29.6626C12.3717 28.9168 12.6922 28.3148 13.2796 27.8838C13.881 27.4425 14.7884 27.1647 15.9566 27.1647C17.1252 27.1647 18.0329 27.4425 18.6345 27.8838C19.2219 28.3148 19.5425 28.9169 19.5425 29.6626C19.5425 30.1116 19.468 30.3898 19.378 30.5852C19.2852 30.7865 19.1632 30.9318 18.9972 31.1249C18.9908 31.1323 18.9843 31.1399 18.9777 31.1476C18.7387 31.4247 18.3535 31.8713 18.3535 32.5604C18.3535 33.1057 18.5454 33.5938 18.9253 33.9481C19.2995 34.2971 19.8107 34.4747 20.3806 34.4985L20.3909 34.499L20.4013 34.499L24.3422 34.5H24.3423C25.5612 34.5 26.6135 34.0063 27.3546 33.1539C28.0913 32.3065 28.4982 31.1324 28.4982 29.7946V25.1081C28.5188 25.0775 28.5478 25.0411 28.5832 25.0064C28.6347 24.9562 28.6827 24.9252 28.7254 24.9086C28.7307 24.9131 28.7363 24.9179 28.7423 24.9231C28.7776 24.9536 28.8197 24.9917 28.8733 25.0409L28.879 25.0462C29.0851 25.2364 29.3854 25.5137 29.8251 25.7359C30.2751 25.9633 30.8486 26.1232 31.6041 26.1232H31.6044C34.0745 26.122 36.5 24.1616 36.5 20.5938C36.5 18.7188 35.97 17.3022 35.1201 16.3475C34.2699 15.3922 33.1317 14.9375 32.0001 14.9375C30.4795 14.9375 29.5877 15.664 29.0582 16.0954L29.0505 16.1016C28.931 16.1989 28.8379 16.2746 28.7607 16.3278C28.7539 16.3325 28.7476 16.3367 28.7419 16.3405C28.6945 16.3257 28.6398 16.2932 28.5805 16.236C28.5467 16.2034 28.5187 16.1693 28.4982 16.1404V12.5417C28.4982 9.84249 26.8117 7.71875 24.3423 7.71875H20.5971C20.7718 7.51195 20.9914 7.23112 21.1724 6.84758C21.3897 6.38747 21.5424 5.80175 21.5424 5.02909C21.5424 3.89519 21.1004 2.75109 20.1655 1.89385C19.2298 1.03591 17.8398 0.5 16.0006 0.5C14.3837 0.5 12.9843 0.926567 11.9772 1.71758C10.9603 2.51636 10.3717 3.66736 10.3717 5.02909C10.3717 5.80163 10.5242 6.38703 10.7411 6.84702C10.9221 7.23075 11.1416 7.51174 11.3162 7.71875ZM28.4735 25.1496C28.4736 25.1495 28.4736 25.1494 28.4737 25.1493L28.4735 25.1496ZM28.4702 16.0958C28.4686 16.0925 28.469 16.0929 28.4707 16.0967L28.4702 16.0958ZM11.7543 7.69037C11.7543 7.69038 11.7537 7.69059 11.7525 7.69096L11.7543 7.69037ZM20.1551 7.69056C20.1552 7.69055 20.156 7.69078 20.1575 7.69131C20.1558 7.69084 20.1551 7.69057 20.1551 7.69056ZM28.6955 16.3682C28.6915 16.3701 28.692 16.3696 28.6965 16.3678L28.6955 16.3682ZM28.6627 24.8597C28.6627 24.8596 28.6635 24.8601 28.6653 24.8612C28.6636 24.8603 28.6628 24.8597 28.6627 24.8597ZM2.42729 16.1718C2.40036 16.1916 2.37578 16.2089 2.35296 16.2239C2.31995 16.2455 2.30364 16.2534 2.3006 16.2547C2.29445 16.2574 2.32564 16.2419 2.38229 16.2401C2.38505 16.2405 2.38866 16.2412 2.39296 16.2421C2.41516 16.2469 2.45573 16.2596 2.49314 16.2923C2.51891 16.3148 2.52776 16.3332 2.52784 16.3331C2.52786 16.3331 2.52719 16.3317 2.52602 16.3285L2.42729 16.1718ZM11.5865 32.6794C11.5865 32.6794 11.5862 32.6789 11.5857 32.678L11.5865 32.6794Z" fill="#3561FF" stroke="#3561FF"/>
</svg>
