<svg width="47" height="36" viewBox="0 0 47 36" fill="none" xmlns="http://www.w3.org/2000/svg">
<mask id="path-1-outside-1_2_30" maskUnits="userSpaceOnUse" x="25" y="15" width="21" height="20" fill="black">
<rect fill="white" x="25" y="15" width="21" height="20"/>
<path d="M38.6522 16.023C38.3882 15.941 38.1082 16.085 38.0242 16.348C37.9412 16.611 38.0862 16.892 38.3492 16.976C42.2571 18.221 44 20.078 44 23C44 25.599 41.6291 27.616 40.2171 28.588C40.0811 28.682 40.0001 28.835 40.0001 29V32.823C39.2702 32.551 37.9972 31.933 36.8742 30.668C36.7572 30.537 36.5792 30.477 36.4062 30.509C36.1212 30.564 35.8302 30.642 35.5352 30.721C35.0253 30.858 34.4993 31 34.0003 31C31.4324 31 29.6344 30.448 27.7965 29.097C27.5725 28.933 27.2615 28.982 27.0975 29.204C26.9335 29.427 26.9815 29.739 27.2035 29.903C29.2304 31.393 31.1994 32 34.0003 32C34.6313 32 35.2233 31.841 35.7952 31.687C35.9732 31.638 36.1502 31.59 36.3252 31.549C38.1942 33.523 40.3081 33.972 40.4001 33.99C40.4331 33.997 40.4661 34 40.5001 34C40.6141 34 40.7271 33.961 40.8161 33.887C40.9331 33.792 41.0001 33.65 41.0001 33.5V29.261C43.582 27.42 45 25.204 45 23C45 19.619 42.9831 17.402 38.6522 16.023Z"/>
</mask>
<path d="M38.6522 16.023C38.3882 15.941 38.1082 16.085 38.0242 16.348C37.9412 16.611 38.0862 16.892 38.3492 16.976C42.2571 18.221 44 20.078 44 23C44 25.599 41.6291 27.616 40.2171 28.588C40.0811 28.682 40.0001 28.835 40.0001 29V32.823C39.2702 32.551 37.9972 31.933 36.8742 30.668C36.7572 30.537 36.5792 30.477 36.4062 30.509C36.1212 30.564 35.8302 30.642 35.5352 30.721C35.0253 30.858 34.4993 31 34.0003 31C31.4324 31 29.6344 30.448 27.7965 29.097C27.5725 28.933 27.2615 28.982 27.0975 29.204C26.9335 29.427 26.9815 29.739 27.2035 29.903C29.2304 31.393 31.1994 32 34.0003 32C34.6313 32 35.2233 31.841 35.7952 31.687C35.9732 31.638 36.1502 31.59 36.3252 31.549C38.1942 33.523 40.3081 33.972 40.4001 33.99C40.4331 33.997 40.4661 34 40.5001 34C40.6141 34 40.7271 33.961 40.8161 33.887C40.9331 33.792 41.0001 33.65 41.0001 33.5V29.261C43.582 27.42 45 25.204 45 23C45 19.619 42.9831 17.402 38.6522 16.023Z" fill="#3561FF"/>
<path d="M38.6522 16.023L38.9556 15.0701L38.9488 15.068L38.6522 16.023ZM38.0242 16.348L37.0716 16.0438L37.0705 16.047L38.0242 16.348ZM38.3492 16.976L38.0449 17.9286L38.0456 17.9288L38.3492 16.976ZM40.2171 28.588L39.6501 27.7643L39.6485 27.7654L40.2171 28.588ZM40.0001 32.823L39.651 33.7601L41.0001 34.2628V32.823H40.0001ZM36.8742 30.668L37.6221 30.0041L37.6201 30.0019L36.8742 30.668ZM36.4062 30.509L36.2243 29.5257L36.2167 29.5271L36.4062 30.509ZM35.5352 30.721L35.2766 29.755L35.2758 29.7552L35.5352 30.721ZM27.7965 29.097L28.3887 28.2913L28.3872 28.2901L27.7965 29.097ZM27.0975 29.204L26.2931 28.6098L26.2919 28.6116L27.0975 29.204ZM27.2035 29.903L26.6093 30.7073L26.6112 30.7087L27.2035 29.903ZM35.7952 31.687L36.0552 32.6526L36.0607 32.6511L35.7952 31.687ZM36.3252 31.549L37.0514 30.8615L36.6564 30.4443L36.0971 30.5754L36.3252 31.549ZM40.4001 33.99L40.6076 33.0118L40.5999 33.0101L40.5921 33.0086L40.4001 33.99ZM40.8161 33.887L40.1857 33.1106L40.1768 33.1181L40.8161 33.887ZM41.0001 29.261L40.4195 28.4468L40.0001 28.7459V29.261H41.0001ZM38.9488 15.068C38.1666 14.825 37.3246 15.2514 37.0716 16.0438L38.9768 16.6522C38.8917 16.9186 38.6098 17.057 38.3555 16.978L38.9488 15.068ZM37.0705 16.047C36.8222 16.834 37.2557 17.6765 38.0449 17.9286L38.6534 16.0234C38.9167 16.1075 39.0602 16.388 38.9778 16.6489L37.0705 16.047ZM38.0456 17.9288C39.9202 18.526 41.1511 19.2336 41.9108 20.0433C42.6409 20.8215 43 21.762 43 23H45C45 21.316 44.4877 19.867 43.3694 18.6749C42.2806 17.5144 40.686 16.671 38.6527 16.0232L38.0456 17.9288ZM43 23C43 23.9871 42.5489 24.9245 41.8607 25.7751C41.1749 26.6226 40.3142 27.3072 39.6501 27.7643L40.7842 29.4117C41.532 28.8968 42.5628 28.0869 43.4154 27.0332C44.2656 25.9825 45 24.6119 45 23H43ZM39.6485 27.7654C39.2453 28.0441 39.0001 28.5031 39.0001 29H41.0001C41.0001 29.1669 40.917 29.3199 40.7857 29.4106L39.6485 27.7654ZM39.0001 29V32.823H41.0001V29H39.0001ZM40.3493 31.8859C39.7195 31.6513 38.6042 31.1105 37.6221 30.0041L36.1264 31.3319C37.3901 32.7555 38.8208 33.4507 39.651 33.7601L40.3493 31.8859ZM37.6201 30.0019C37.2678 29.6074 36.7368 29.4309 36.2243 29.5257L36.5881 31.4923C36.4216 31.5231 36.2466 31.4666 36.1284 31.3341L37.6201 30.0019ZM36.2167 29.5271C35.8906 29.5901 35.5645 29.6779 35.2766 29.755L35.7939 31.687C36.096 31.6061 36.3518 31.5379 36.5957 31.4909L36.2167 29.5271ZM35.2758 29.7552C34.7349 29.9005 34.3424 30 34.0003 30V32C34.6562 32 35.3156 31.8155 35.7947 31.6868L35.2758 29.7552ZM34.0003 30C31.6176 30 30.0339 29.5005 28.3887 28.2913L27.2042 29.9027C29.2349 31.3955 31.2471 32 34.0003 32V30ZM28.3872 28.2901C27.716 27.7987 26.7821 27.9479 26.2931 28.6098L27.9018 29.7982C27.7408 30.0161 27.429 30.0673 27.2057 29.9039L28.3872 28.2901ZM26.2919 28.6116C25.8001 29.2802 25.9452 30.2167 26.6093 30.7073L27.7977 29.0987C28.0178 29.2613 28.0668 29.5738 27.9031 29.7964L26.2919 28.6116ZM26.6112 30.7087C28.8293 32.3393 31.0118 33 34.0003 33V31C31.3869 31 29.6315 30.4467 27.7958 29.0973L26.6112 30.7087ZM34.0003 33C34.7841 33 35.5011 32.8018 36.0552 32.6526L35.5353 30.7214C34.9454 30.8802 34.4785 31 34.0003 31V33ZM36.0607 32.6511C36.2385 32.6022 36.399 32.5588 36.5533 32.5226L36.0971 30.5754C35.9015 30.6212 35.708 30.6738 35.5298 30.7229L36.0607 32.6511ZM35.5991 32.2365C37.6681 34.4219 40.0119 34.933 40.2081 34.9714L40.5921 33.0086C40.6043 33.011 38.7202 32.6241 37.0514 30.8615L35.5991 32.2365ZM40.1926 34.9682C40.3028 34.9916 40.4062 35 40.5001 35V33C40.5261 33 40.5634 33.0024 40.6076 33.0118L40.1926 34.9682ZM40.5001 35C40.8387 35 41.1801 34.8849 41.4555 34.6559L40.1768 33.1181C40.2742 33.0371 40.3896 33 40.5001 33V35ZM41.4465 34.6633C41.7989 34.3771 42.0001 33.9492 42.0001 33.5H40.0001C40.0001 33.3508 40.0673 33.2069 40.1858 33.1107L41.4465 34.6633ZM42.0001 33.5V29.261H40.0001V33.5H42.0001ZM41.5807 30.0752C44.3021 28.1347 46 25.654 46 23H44C44 24.754 42.8619 26.7053 40.4195 28.4468L41.5807 30.0752ZM46 23C46 21.0896 45.4215 19.4415 44.1898 18.0878C42.9818 16.76 41.2125 15.7888 38.9556 15.0701L38.3488 16.9759C40.4228 17.6362 41.8273 18.463 42.7105 19.4337C43.5701 20.3785 44 21.5294 44 23H46Z" fill="#3561FF" mask="url(#path-1-outside-1_2_30)"/>
<path d="M8.14474 33.338L8.14472 33.338L8.14959 33.3411C8.31512 33.4457 8.50462 33.5 8.69697 33.5C8.83946 33.5 8.97928 33.4694 9.1076 33.4136L9.10981 33.4127C9.28198 33.3368 12.7296 31.7851 15.7622 28.5914C17.0048 28.814 18.4066 29.0209 19.6985 29.0209C24.6564 29.0209 28.8487 27.7179 31.8135 25.3984C34.7883 23.0711 36.5 19.739 36.5 15.7678C36.5 7.55409 28.9473 1.5 19.1824 1.5C9.37981 1.5 1.5 7.67488 1.5 15.7698C1.5 20.5342 4.81806 23.9312 7.68182 25.9813V32.4901C7.68182 32.8366 7.85936 33.153 8.14474 33.338ZM15.5836 26.5039L15.5836 26.5039L15.5781 26.5029C15.2363 26.4423 14.8776 26.5562 14.6374 26.8224L14.6362 26.8237C12.9441 28.7127 11.0031 30.0394 9.71212 30.8026V25.4563C9.71212 25.1198 9.5446 24.8107 9.27087 24.6234L9.26999 24.6228C6.5802 22.791 3.5303 19.813 3.5303 15.7698C3.5303 8.99967 10.2844 3.51984 19.1824 3.51984C28.0121 3.51984 34.4697 8.87113 34.4697 15.7678C34.4697 19.116 33.0122 21.9049 30.4545 23.8699C27.8863 25.8429 24.1839 27.001 19.6975 27.001C18.3995 27.001 16.9065 26.7537 15.5836 26.5039Z" fill="#3561FF" stroke="#3561FF"/>
<path d="M19 11.8C17.235 11.8 15.8 13.235 15.8 15C15.8 16.765 17.235 18.2 19 18.2C20.765 18.2 22.2 16.765 22.2 15C22.2 13.235 20.765 11.8 19 11.8ZM19 16.3C18.2838 16.3 17.7 15.7174 17.7 15C17.7 14.2826 18.2838 13.7 19 13.7C19.7162 13.7 20.3 14.2826 20.3 15C20.3 15.7174 19.7162 16.3 19 16.3Z" fill="#3561FF" stroke="#3561FF" stroke-width="0.4"/>
<path d="M27 11.8C25.235 11.8 23.8 13.235 23.8 15C23.8 16.765 25.235 18.2 27 18.2C28.765 18.2 30.2 16.765 30.2 15C30.2 13.235 28.765 11.8 27 11.8ZM27 16.3C26.2838 16.3 25.7 15.7174 25.7 15C25.7 14.2826 26.2838 13.7 27 13.7C27.7162 13.7 28.3 14.2826 28.3 15C28.3 15.7174 27.7162 16.3 27 16.3Z" fill="#3561FF" stroke="#3561FF" stroke-width="0.4"/>
<path d="M11 11.8C9.23504 11.8 7.8 13.235 7.8 15C7.8 16.765 9.23504 18.2 11 18.2C12.765 18.2 14.2 16.765 14.2 15C14.2 13.235 12.765 11.8 11 11.8ZM11 16.3C10.2838 16.3 9.7 15.7174 9.7 15C9.7 14.2826 10.2838 13.7 11 13.7C11.7162 13.7 12.3 14.2826 12.3 15C12.3 15.7174 11.7162 16.3 11 16.3Z" fill="#3561FF" stroke="#3561FF" stroke-width="0.4"/>
</svg>
