<svg width="56" height="56" viewBox="0 0 56 56" fill="none" xmlns="http://www.w3.org/2000/svg">
<path d="M10.0391 15.1677L23.5262 24.8035C26.2027 26.7157 29.7982 26.7157 32.4747 24.8035L45.9619 15.1677" stroke="#3561FF" stroke-width="1.5" stroke-linecap="round"/>
<path d="M6.73323 20.6471C8.30276 14.3263 13.3147 9.43912 19.672 8.03044L20.731 7.79578C25.5194 6.73474 30.4819 6.73474 35.2703 7.79578L36.3293 8.03044C42.6866 9.43912 47.6985 14.3263 49.2681 20.6471C50.4671 25.4757 50.4671 30.5243 49.2681 35.3529C47.6985 41.6737 42.6866 46.5609 36.3293 47.9696L35.2703 48.2042C30.4819 49.2653 25.5194 49.2653 20.731 48.2042L19.6719 47.9696C13.3147 46.5609 8.30276 41.6737 6.73323 35.3529C5.53423 30.5243 5.53423 25.4757 6.73323 20.6471Z" stroke="#3561FF" stroke-width="1.5" stroke-linecap="round"/>
<path d="M49.2681 35.3529C50.4671 30.5243 50.4671 25.4757 49.2681 20.6471C47.6985 14.3263 42.6866 9.43912 36.3293 8.03044L35.2703 7.79578C30.4819 6.73474 25.5194 6.73474 20.731 7.79578L19.672 8.03044C13.3147 9.43912 8.30276 14.3263 6.73323 20.6471C5.53423 25.4757 5.53423 30.5243 6.73323 35.3529C8.30276 41.6737 13.3147 46.5609 19.6719 47.9696L20.731 48.2042C25.5194 49.2653 30.4819 49.2653 35.2703 48.2042L36.3293 47.9696" stroke="#343C58" stroke-width="1.5" stroke-linecap="round"/>
</svg>
