<svg width="56" height="56" viewBox="0 0 56 56" fill="none" xmlns="http://www.w3.org/2000/svg">
<path d="M7.69303 12.2122C8.21901 9.96985 9.96985 8.21901 12.2122 7.69302V7.69302C14.1555 7.23719 16.1779 7.23719 18.1211 7.69302V7.69302C20.3635 8.21901 22.1143 9.96985 22.6403 12.2122V12.2122C23.0961 14.1555 23.0961 16.1779 22.6403 18.1211V18.1211C22.1143 20.3635 20.3635 22.1143 18.1211 22.6403V22.6403C16.1779 23.0961 14.1555 23.0961 12.2122 22.6403V22.6403C9.96985 22.1143 8.21901 20.3635 7.69303 18.1211V18.1211C7.23719 16.1779 7.2372 14.1555 7.69303 12.2122V12.2122Z" stroke="#343C58" stroke-width="1.5"/>
<path d="M7.69303 37.8788C8.21901 35.6365 9.96985 33.8856 12.2122 33.3597V33.3597C14.1555 32.9038 16.1779 32.9038 18.1211 33.3597V33.3597C20.3635 33.8856 22.1143 35.6365 22.6403 37.8788V37.8788C23.0961 39.8221 23.0961 41.8445 22.6403 43.7878V43.7878C22.1143 46.0301 20.3635 47.781 18.1211 48.3069V48.3069C16.1779 48.7628 14.1555 48.7628 12.2122 48.3069V48.3069C9.96985 47.781 8.21901 46.0301 7.69303 43.7878V43.7878C7.2372 41.8445 7.2372 39.8221 7.69303 37.8788V37.8788Z" stroke="#3561FF" stroke-width="1.5"/>
<path d="M33.359 12.2122C33.885 9.96985 35.6359 8.21901 37.8782 7.69302V7.69302C39.8215 7.23719 41.8439 7.23719 43.7872 7.69302V7.69302C46.0295 8.21901 47.7803 9.96985 48.3063 12.2122V12.2122C48.7622 14.1555 48.7622 16.1779 48.3063 18.1211V18.1211C47.7803 20.3635 46.0295 22.1143 43.7872 22.6403V22.6403C41.8439 23.0961 39.8215 23.0961 37.8782 22.6403V22.6403C35.6359 22.1143 33.885 20.3635 33.359 18.1211V18.1211C32.9032 16.1779 32.9032 14.1555 33.359 12.2122V12.2122Z" stroke="#343C58" stroke-width="1.5"/>
<path d="M33.359 37.8788C33.885 35.6365 35.6359 33.8856 37.8782 33.3597V33.3597C39.8215 32.9038 41.8439 32.9038 43.7872 33.3597V33.3597C46.0295 33.8856 47.7803 35.6365 48.3063 37.8788V37.8788C48.7622 39.8221 48.7622 41.8445 48.3063 43.7878V43.7878C47.7803 46.0301 46.0295 47.781 43.7872 48.3069V48.3069C41.8439 48.7628 39.8215 48.7628 37.8782 48.3069V48.3069C35.6359 47.781 33.885 46.0301 33.359 43.7878V43.7878C32.9032 41.8445 32.9032 39.8221 33.359 37.8788V37.8788Z" stroke="#343C58" stroke-width="1.5"/>
</svg>
