<svg width="56" height="56" viewBox="0 0 56 56" fill="none" xmlns="http://www.w3.org/2000/svg">
<path d="M30.334 7.58894C35.3803 6.15111 40.9338 7.34212 44.7962 11.2045C48.6585 15.0669 49.8495 20.6204 48.4117 25.6667M34.8534 13.9162C36.6558 13.5572 38.7318 14.179 40.2767 15.7239C41.8217 17.2689 42.4435 19.3449 42.0845 21.1472" stroke="#3561FF" stroke-width="1.5" stroke-linecap="round" stroke-linejoin="round"/>
<path d="M35.3857 48.7282C37.4427 49.0906 39.5573 49.0906 41.6143 48.7282C44.9204 48.1456 47.5834 45.926 48.5006 42.9884L48.6952 42.3653C48.8974 41.7176 49 41.0477 49 40.3746C49 37.4063 46.3454 35 43.0709 35H33.9291C30.6546 35 28 37.4063 28 40.3746C28 41.0477 28.1026 41.7176 28.3048 42.3653L28.4994 42.9884C29.4166 45.926 32.0796 48.1456 35.3857 48.7282ZM35.3857 48.7282C21.0979 46.0808 9.91919 34.9021 7.27184 20.6143M7.27184 20.6143C6.90939 18.5573 6.90939 16.4427 7.27184 14.3857C7.85442 11.0796 10.074 8.41663 13.0116 7.49937L13.6347 7.30481C14.2824 7.10257 14.9523 7 15.6254 7C18.5937 7 21 9.65458 21 12.9291L21 22.0709C21 25.3454 18.5937 28 15.6254 28C14.9523 28 14.2824 27.8974 13.6347 27.6952L13.0116 27.5006C10.074 26.5834 7.85442 23.9204 7.27184 20.6143Z" stroke="#343C58" stroke-width="1.5"/>
</svg>
