<svg width="56" height="56" viewBox="0 0 56 56" fill="none" xmlns="http://www.w3.org/2000/svg">
<path d="M22.6769 42.7473L21.9397 42.6089L21.9397 42.6089L22.6769 42.7473ZM22.722 42.5069L23.4591 42.6453L23.4591 42.6453L22.722 42.5069ZM33.2791 42.5069L32.542 42.6453L32.542 42.6453L33.2791 42.5069ZM33.3242 42.7473L34.0613 42.6089V42.6089L33.3242 42.7473ZM32.648 47.9544L33.3252 48.2766L32.648 47.9544ZM31.6983 48.2046C31.5203 48.5787 31.6792 49.0262 32.0533 49.2041C32.4273 49.3821 32.8748 49.2232 33.0528 48.8492L31.6983 48.2046ZM23.3531 47.9544L22.6758 48.2766L22.6758 48.2766L23.3531 47.9544ZM22.9483 48.8492C23.1263 49.2232 23.5738 49.3821 23.9478 49.2041C24.3219 49.0261 24.4808 48.5787 24.3028 48.2046L22.9483 48.8492ZM26.5097 38.3659L26.3092 37.6432L26.3092 37.6432L26.5097 38.3659ZM29.4914 38.3659L29.6919 37.6432V37.6432L29.4914 38.3659ZM23.414 42.8857L23.4591 42.6453L21.9849 42.3685L21.9397 42.6089L23.414 42.8857ZM32.542 42.6453L32.5871 42.8857L34.0613 42.6089L34.0162 42.3685L32.542 42.6453ZM31.9708 47.6321L31.6983 48.2046L33.0528 48.8492L33.3252 48.2766L31.9708 47.6321ZM22.6758 48.2766L22.9483 48.8492L24.3028 48.2046L24.0303 47.6321L22.6758 48.2766ZM32.5871 42.8857C32.8889 44.4937 32.6729 46.1568 31.9708 47.6321L33.3252 48.2766C34.1639 46.5143 34.4217 44.5287 34.0613 42.6089L32.5871 42.8857ZM21.9397 42.6089C21.5794 44.5287 21.8372 46.5143 22.6758 48.2766L24.0303 47.6321C23.3282 46.1568 23.1121 44.4937 23.414 42.8857L21.9397 42.6089ZM26.7102 39.0886C27.5547 38.8543 28.4464 38.8543 29.2909 39.0886L29.6919 37.6432C28.585 37.3361 27.4161 37.3361 26.3092 37.6432L26.7102 39.0886ZM34.0162 42.3685C33.5894 40.0945 31.9136 38.2596 29.6919 37.6432L29.2909 39.0886C30.9567 39.5508 32.2198 40.929 32.542 42.6453L34.0162 42.3685ZM23.4591 42.6453C23.7813 40.929 25.0444 39.5508 26.7102 39.0886L26.3092 37.6432C24.0875 38.2596 22.4117 40.0945 21.9849 42.3685L23.4591 42.6453Z" fill="#3561FF"/>
<path d="M45.76 22.6777C45.76 22.2635 45.4242 21.9277 45.01 21.9277C44.5958 21.9277 44.26 22.2635 44.26 22.6777H45.76ZM11.74 22.6777C11.74 22.2635 11.4042 21.9277 10.99 21.9277C10.5758 21.9277 10.24 22.2635 10.24 22.6777H11.74ZM33.8642 48.3166L33.6918 47.5867L33.8642 48.3166ZM22.1357 48.3166L22.3081 47.5867H22.3081L22.1357 48.3166ZM34.5997 11.6999L34.0675 12.2283L34.5997 11.6999ZM48.4678 26.7311C48.7596 27.025 49.2345 27.0267 49.5284 26.7348C49.8224 26.443 49.8241 25.9681 49.5322 25.6742L48.4678 26.7311ZM21.4003 11.6999L21.9325 12.2283L21.4003 11.6999ZM6.46779 25.6742C6.17594 25.9681 6.17762 26.443 6.47155 26.7348C6.76548 27.0267 7.24035 27.025 7.53221 26.7311L6.46779 25.6742ZM44.26 22.6777V34.1539H45.76V22.6777H44.26ZM11.74 34.1539V22.6777H10.24V34.1539H11.74ZM33.6918 47.5867C29.948 48.4711 26.0519 48.4711 22.3081 47.5867L21.9633 49.0465C25.9338 49.9845 30.0661 49.9845 34.0367 49.0465L33.6918 47.5867ZM22.3081 47.5867C16.1205 46.1249 11.74 40.5638 11.74 34.1539H10.24C10.24 41.2526 15.0921 47.4233 21.9633 49.0465L22.3081 47.5867ZM34.0367 49.0465C40.9079 47.4233 45.76 41.2526 45.76 34.1539H44.26C44.26 40.5638 39.8795 46.1249 33.6918 47.5867L34.0367 49.0465ZM34.0675 12.2283L48.4678 26.7311L49.5322 25.6742L35.1319 11.1714L34.0675 12.2283ZM20.8681 11.1714L6.46779 25.6742L7.53221 26.7311L21.9325 12.2283L20.8681 11.1714ZM35.1319 11.1714C33.5913 9.61988 32.3837 8.40148 31.315 7.58026C30.2292 6.74592 29.1981 6.25 28 6.25V7.75C28.7349 7.75 29.4481 8.03739 30.4011 8.76967C31.3711 9.51508 32.4969 10.6466 34.0675 12.2283L35.1319 11.1714ZM21.9325 12.2283C23.5031 10.6466 24.6289 9.51508 25.5989 8.76967C26.5519 8.03739 27.2651 7.75 28 7.75V6.25C26.8019 6.25 25.7708 6.74592 24.685 7.58026C23.6163 8.40148 22.4087 9.61988 20.8681 11.1714L21.9325 12.2283Z" fill="#343C58"/>
</svg>
