<svg width="40" height="32" viewBox="0 0 40 32" fill="none" xmlns="http://www.w3.org/2000/svg">
<path d="M33 28H7C6.4375 28 6 28.5 6 29V31C6 31.5625 6.4375 32 7 32H33C33.5 32 34 31.5625 34 31V29C34 28.5 33.5 28 33 28ZM37 8C35.3125 8 34 9.375 34 11C34 11.5 34.0625 11.875 34.25 12.25L29.75 15C28.75 15.5625 27.5 15.25 26.9375 14.25L21.875 5.3125C22.5625 4.8125 23 3.9375 23 3C23 1.375 21.625 0 20 0C18.3125 0 17 1.375 17 3C17 3.9375 17.4375 4.8125 18.0625 5.3125L13 14.25C12.4375 15.25 11.1875 15.5625 10.25 15L5.6875 12.25C5.875 11.875 6 11.5 6 11C6 9.375 4.625 8 3 8C1.3125 8 0 9.375 0 11C0 12.6875 1.3125 14 3 14C3.125 14 3.3125 14 3.4375 14L8 26H32L36.5 14C36.625 14 36.8125 14 37 14C38.625 14 40 12.6875 40 11C40 9.375 38.625 8 37 8Z" fill="#FAC300"/>
</svg>
