<svg width="28" height="28" viewBox="0 0 28 28" fill="none" xmlns="http://www.w3.org/2000/svg">
<path d="M14 9.39582C11.4572 9.39582 9.39585 11.4572 9.39585 14C9.39585 16.5428 11.4572 18.6041 14 18.6041C16.5428 18.6041 18.6042 16.5428 18.6042 14C18.6042 11.4572 16.5428 9.39582 14 9.39582Z" fill="white"/>
<path fill-rule="evenodd" clip-rule="evenodd" d="M6.59019 1.3654C11.475 0.819444 16.525 0.819444 21.4099 1.3654C24.0993 1.66598 26.2685 3.785 26.5841 6.48382C27.1682 11.4776 27.1682 16.5224 26.5841 21.5161C26.2685 24.215 24.0993 26.334 21.4099 26.6346C16.525 27.1805 11.475 27.1805 6.59019 26.6346C3.9008 26.334 1.73161 24.215 1.41595 21.5161C0.831889 16.5224 0.831889 11.4776 1.41595 6.48382C1.73161 3.785 3.9008 1.66598 6.59019 1.3654ZM21.0833 5.49998C20.3009 5.49998 19.6667 6.13425 19.6667 6.91665C19.6667 7.69905 20.3009 8.33332 21.0833 8.33332C21.8658 8.33332 22.5 7.69905 22.5 6.91665C22.5 6.13425 21.8658 5.49998 21.0833 5.49998ZM7.27085 14C7.27085 10.2836 10.2836 7.27082 14 7.27082C17.7164 7.27082 20.7292 10.2836 20.7292 14C20.7292 17.7164 17.7164 20.7291 14 20.7291C10.2836 20.7291 7.27085 17.7164 7.27085 14Z" fill="white"/>
</svg>
