<svg width="29" height="26" viewBox="0 0 29 26" fill="none" xmlns="http://www.w3.org/2000/svg">
<path fill-rule="evenodd" clip-rule="evenodd" d="M24.1844 24.0359L24.1854 24.0335L24.21 23.9719L28.4583 2.55319V2.48362C28.4583 1.94996 28.2611 1.48408 27.8321 1.20462C27.4565 0.96002 27.0247 0.9426 26.722 0.965579C26.4018 0.989882 26.0999 1.0698 25.8909 1.13633C25.7833 1.17056 25.6934 1.20354 25.629 1.22848C25.5967 1.241 25.5705 1.25162 25.5515 1.25953L25.5328 1.26741L1.84636 10.5592L1.83984 10.5616C1.82704 10.5662 1.81013 10.5725 1.78969 10.5805C1.74896 10.5963 1.69351 10.619 1.62837 10.6486C1.50047 10.7065 1.32376 10.796 1.14455 10.9187C0.840178 11.1271 0.2606 11.6206 0.358466 12.4029C0.439529 13.0509 0.886208 13.4624 1.18735 13.6755C1.34878 13.7897 1.50321 13.8721 1.6163 13.9259C1.6736 13.9532 1.72227 13.9741 1.75852 13.9889C1.7767 13.9963 1.79189 14.0022 1.80365 14.0067L1.8187 14.0123L1.82832 14.0159L5.97242 15.411C5.95843 15.671 5.98422 15.9361 6.05317 16.1977L8.12899 24.0721C8.37512 25.0057 9.21977 25.6561 10.1853 25.6554C11.0508 25.6548 11.8184 25.1312 12.1445 24.35L15.3854 20.8847L20.9514 25.1521L21.0306 25.1866C21.5363 25.4073 22.0087 25.4772 22.4407 25.4182C22.8721 25.3593 23.2149 25.1784 23.4724 24.9724C23.7258 24.7696 23.8994 24.5408 24.0086 24.3686C24.0641 24.2811 24.1055 24.2042 24.1342 24.1463C24.1486 24.1172 24.1599 24.0926 24.1684 24.0734L24.1791 24.0488L24.1829 24.0396L24.1844 24.0359ZM8.1079 15.656C8.06072 15.477 8.13479 15.2881 8.29103 15.1889L22.3472 6.26258C22.3472 6.26258 23.174 5.76066 23.1444 6.26258C23.1444 6.26258 23.292 6.35122 22.849 6.7645C22.4287 7.15702 12.8307 16.4235 11.8596 17.3612C11.8035 17.4153 11.77 17.4774 11.7503 17.5528L10.1837 23.5304L8.1079 15.656Z" fill="white"/>
</svg>
