<svg width="30" height="29" viewBox="0 0 30 29" fill="none" xmlns="http://www.w3.org/2000/svg">
<path d="M16.461 18.4179C16.8255 18.5992 17.0427 18.5713 17.2529 18.3272C17.4632 18.083 18.1639 17.2669 18.4093 16.9042C18.6475 16.5416 18.8928 16.5974 19.2292 16.7229C19.5656 16.8484 21.3596 17.7273 21.724 17.9086C21.796 17.9445 21.8634 17.9768 21.9258 18.0067M16.461 18.4179L16.6837 17.9703C16.6837 17.9702 16.6837 17.9702 16.6837 17.9702M16.461 18.4179L16.6837 17.9702M16.461 18.4179C16.4017 18.3884 16.321 18.3536 16.2213 18.3106C15.708 18.0891 14.6925 17.6509 13.5247 16.6113C12.4385 15.6487 11.7026 14.4559 11.4923 14.0932M16.6837 17.9702C16.7542 18.0053 16.8019 18.0223 16.8323 18.03C16.8366 18.0311 16.8404 18.032 16.8438 18.0327M16.6837 17.9702C16.612 17.9346 16.5207 17.8952 16.4297 17.8559L16.4194 17.8515L16.4182 17.851C15.9219 17.6368 14.9647 17.2238 13.8572 16.2378L13.8563 16.2371C12.8296 15.3272 12.1256 14.1885 11.9248 13.8424M16.8438 18.0327C16.843 18.0334 16.8422 18.0341 16.8415 18.0347C16.8364 18.0392 16.8331 18.0417 16.8315 18.0428C16.8307 18.0434 16.8303 18.0436 16.8303 18.0436C16.8333 18.0418 16.8439 18.037 16.8564 18.0355C16.8649 18.0345 16.8624 18.0365 16.8438 18.0327ZM16.8438 18.0327C16.8512 18.0259 16.8613 18.0157 16.874 18.0009L16.874 18.0009C17.0942 17.7453 17.767 16.9602 17.9935 16.6265M17.9935 16.6265C17.9928 16.6276 17.9921 16.6286 17.9914 16.6297L18.4093 16.9042L17.9951 16.6241C17.9946 16.6249 17.994 16.6257 17.9935 16.6265ZM17.9935 16.6265C18.1661 16.3651 18.4021 16.1719 18.7239 16.1339C18.9932 16.1022 19.2467 16.1958 19.404 16.2544L19.404 16.2545C19.5996 16.3274 20.1595 16.5924 20.683 16.8443C21.2207 17.1032 21.7623 17.3692 21.9467 17.461L21.9468 17.461C22.0151 17.495 22.0793 17.5258 22.142 17.5559L21.9258 18.0067M21.9258 18.0067L22.142 17.5559L22.1561 17.5627C22.2713 17.6179 22.3977 17.6785 22.5036 17.7432C22.6133 17.8102 22.7566 17.9135 22.8548 18.0791M21.9258 18.0067C22.1794 18.1283 22.3517 18.211 22.4248 18.3342M22.8548 18.0791L19.7477 21.7938C20.4205 21.7311 21.9063 20.915 22.2146 20.064C22.5159 19.213 22.5159 18.4876 22.4248 18.3342M22.8548 18.0791L22.4248 18.3342M22.8548 18.0791C22.8548 18.079 22.8547 18.079 22.8547 18.0789L22.4248 18.3342M11.9248 13.8424C11.9248 13.8424 11.9249 13.8425 11.9249 13.8425L11.4923 14.0932M11.9248 13.8424C11.9177 13.8301 11.9125 13.8199 11.9087 13.8118M11.9248 13.8424L11.4923 14.0932M11.4923 14.0932C11.2821 13.7306 11.4714 13.5351 11.6535 13.3539C11.7563 13.2516 11.8761 13.1068 11.9967 12.961C12.0653 12.8781 12.1341 12.795 12.2002 12.7191C12.3609 12.5346 12.4289 12.3934 12.5245 12.1951C12.5373 12.1686 12.5505 12.141 12.5646 12.1122M11.9087 13.8118C11.9093 13.8111 11.9098 13.8103 11.9104 13.8096C11.9313 13.7839 11.9589 13.7554 12.0061 13.7084L12.0064 13.7082C12.1264 13.5886 12.2589 13.4284 12.372 13.2918L12.3819 13.2798C12.4514 13.1958 12.5161 13.1178 12.5772 13.0476L12.5773 13.0475C12.7823 12.8121 12.8746 12.6205 12.9707 12.4209L12.9749 12.4121L12.9749 12.4121L13.0139 12.3315L12.5646 12.1122M11.9087 13.8118C11.8962 13.8274 11.8925 13.8347 11.8925 13.8347C11.8924 13.8347 11.8931 13.8334 11.8939 13.8311C11.8988 13.818 11.9009 13.8008 11.8994 13.7885C11.8986 13.7823 11.8983 13.7894 11.9087 13.8118ZM12.5646 12.1122C12.6837 11.8682 12.6276 11.6589 12.5365 11.4776M12.5646 12.1122L13.014 12.3315M12.5365 11.4776L13.014 12.3315M12.5365 11.4776L12.9834 11.2533C12.9834 11.2533 12.9834 11.2533 12.9834 11.2533M12.5365 11.4776L12.9833 11.2531C12.9834 11.2532 12.9834 11.2532 12.9834 11.2533M13.014 12.3315C13.229 11.8907 13.1103 11.506 12.9834 11.2533M13.014 12.3315L12.9834 11.2533M12.9834 11.2533C12.9834 11.2533 12.9803 11.2468 12.9727 11.2298C12.9655 11.2137 12.9563 11.1927 12.9451 11.1665C12.9226 11.1141 12.8937 11.0454 12.8594 10.9631C12.791 10.7986 12.7033 10.585 12.6063 10.3488L12.6029 10.3404C12.3563 9.73995 12.0491 8.9918 11.8645 8.58046L11.8642 8.57979C11.7032 8.22248 11.5053 7.96529 11.2438 7.81369C10.9916 7.66756 10.7441 7.66118 10.6133 7.65781C10.6099 7.65772 10.6065 7.65763 10.6032 7.65755C10.3851 7.65038 10.1338 7.65038 9.89296 7.65038H9.88754C9.52783 7.65038 8.99334 7.78225 8.54683 8.26372C8.52881 8.28315 8.50845 8.30467 8.48401 8.3305L8.48401 8.33051C8.0785 8.75907 7.13792 9.7569 7.13792 11.6381C7.13792 12.6312 7.49463 13.5803 7.85604 14.2945C8.22082 15.0154 8.61249 15.5394 8.72229 15.6864L8.72236 15.6864L8.72238 15.6865L8.72987 15.6965L12.9834 11.2533ZM8.54889 26.7739C8.43738 26.7135 8.30709 26.6977 8.18439 26.7297L1.65733 28.4346C1.60765 28.4475 1.56257 28.4019 1.57621 28.3524L3.31957 22.0242C3.35518 21.895 3.33739 21.7568 3.2702 21.6408C2.0784 19.583 1.45154 17.2495 1.45239 14.8746V14.8745C1.45239 7.41046 7.56145 1.33337 15.0594 1.33337C18.7046 1.33337 22.1169 2.74583 24.6861 5.30303C27.2547 7.85976 28.6666 11.2617 28.6666 14.8814C28.6666 22.3453 22.5576 28.4224 15.0595 28.4224H15.0525C12.7743 28.4224 10.5364 27.8504 8.54889 26.7739Z" fill="white" stroke="white" stroke-linejoin="round"/>
</svg>
