<svg width="113" height="126" viewBox="0 0 113 126" fill="none" xmlns="http://www.w3.org/2000/svg">
<rect x="0.0502525" y="70" width="80" height="80" rx="10.5" transform="rotate(-45 0.0502525 70)" stroke="#F8B043" stroke-width="7"/>
<path d="M101.331 107.546V114.676H10.9629V99.4116H101.331" stroke="#ADACAC" stroke-width="2.63" stroke-miterlimit="10" stroke-linecap="square"/>
<path d="M101.331 107.546V114.676H10.9629V99.4116H101.331" stroke="url(#paint0_linear_393:114)" stroke-width="2.63" stroke-miterlimit="10" stroke-linecap="square"/>
<path d="M101.331 107.546V114.676H10.9629V99.4116H101.331" stroke="#181818" stroke-width="2.63" stroke-miterlimit="10" stroke-linecap="square"/>
<path d="M65.625 56.5464L66.3604 59.6682" stroke="#ADACAC" stroke-width="2.63" stroke-miterlimit="10" stroke-linecap="square"/>
<path d="M65.625 56.5464L66.3604 59.6682" stroke="url(#paint1_linear_393:114)" stroke-width="2.63" stroke-miterlimit="10" stroke-linecap="square"/>
<path d="M65.625 56.5464L66.3604 59.6682" stroke="#181818" stroke-width="2.63" stroke-miterlimit="10" stroke-linecap="square"/>
<path d="M45.9355 59.6683L47.3914 51.1133" stroke="#ADACAC" stroke-width="2.63" stroke-miterlimit="10" stroke-linecap="square"/>
<path d="M45.9355 59.6683L47.3914 51.1133" stroke="url(#paint2_linear_393:114)" stroke-width="2.63" stroke-miterlimit="10" stroke-linecap="square"/>
<path d="M45.9355 59.6683L47.3914 51.1133" stroke="#181818" stroke-width="2.63" stroke-miterlimit="10" stroke-linecap="square"/>
<path d="M73.6712 25.5386C73.6712 39.7219 65.8216 53.1247 56.1559 53.1247C46.4902 53.1247 38.6406 39.6618 38.6406 25.5386" stroke="#ADACAC" stroke-width="2.63" stroke-miterlimit="10" stroke-linecap="square"/>
<path d="M73.6712 25.5386C73.6712 39.7219 65.8216 53.1247 56.1559 53.1247C46.4902 53.1247 38.6406 39.6618 38.6406 25.5386" stroke="url(#paint3_linear_393:114)" stroke-width="2.63" stroke-miterlimit="10" stroke-linecap="square"/>
<path d="M73.6712 25.5386C73.6712 39.7219 65.8216 53.1247 56.1559 53.1247C46.4902 53.1247 38.6406 39.6618 38.6406 25.5386" stroke="#181818" stroke-width="2.63" stroke-miterlimit="10" stroke-linecap="square"/>
<path d="M74.2259 22.3866C74.2259 22.3866 77.663 13.7266 73.6706 8.72863C69.6783 3.7307 56.9358 -1.23721 44.3885 4.72128C31.0757 11.04 37.5895 22.5367 37.5895 22.5367C55.7201 27.7748 60.8981 16.7733 66.2263 18.5294" stroke="#ADACAC" stroke-width="2.63" stroke-miterlimit="10" stroke-linecap="square"/>
<path d="M74.2259 22.3866C74.2259 22.3866 77.663 13.7266 73.6706 8.72863C69.6783 3.7307 56.9358 -1.23721 44.3885 4.72128C31.0757 11.04 37.5895 22.5367 37.5895 22.5367C55.7201 27.7748 60.8981 16.7733 66.2263 18.5294" stroke="url(#paint4_linear_393:114)" stroke-width="2.63" stroke-miterlimit="10" stroke-linecap="square"/>
<path d="M74.2259 22.3866C74.2259 22.3866 77.663 13.7266 73.6706 8.72863C69.6783 3.7307 56.9358 -1.23721 44.3885 4.72128C31.0757 11.04 37.5895 22.5367 37.5895 22.5367C55.7201 27.7748 60.8981 16.7733 66.2263 18.5294" stroke="#181818" stroke-width="2.63" stroke-miterlimit="10" stroke-linecap="square"/>
<path d="M36.793 61.8447L56.1543 85.8888L75.5006 61.8447" stroke="#ADACAC" stroke-width="2.63" stroke-miterlimit="10" stroke-linecap="round"/>
<path d="M36.793 61.8447L56.1543 85.8888L75.5006 61.8447" stroke="url(#paint5_linear_393:114)" stroke-width="2.63" stroke-miterlimit="10" stroke-linecap="round"/>
<path d="M36.793 61.8447L56.1543 85.8888L75.5006 61.8447" stroke="#181818" stroke-width="2.63" stroke-miterlimit="10" stroke-linecap="round"/>
<path d="M96.9649 99.4117H15.332V83.3073C15.332 80.4888 15.8872 77.6979 16.9658 75.0939C18.0444 72.49 19.6253 70.124 21.6183 68.131C25.6433 64.106 31.1024 61.8447 36.7946 61.8447H75.5623C81.2546 61.8447 86.7136 64.106 90.7387 68.131C94.7637 72.156 97.0249 77.6151 97.0249 83.3073V89.8361" stroke="#ADACAC" stroke-width="2.63" stroke-miterlimit="10" stroke-linecap="square"/>
<path d="M96.9649 99.4117H15.332V83.3073C15.332 80.4888 15.8872 77.6979 16.9658 75.0939C18.0444 72.49 19.6253 70.124 21.6183 68.131C25.6433 64.106 31.1024 61.8447 36.7946 61.8447H75.5623C81.2546 61.8447 86.7136 64.106 90.7387 68.131C94.7637 72.156 97.0249 77.6151 97.0249 83.3073V89.8361" stroke="url(#paint6_linear_393:114)" stroke-width="2.63" stroke-miterlimit="10" stroke-linecap="square"/>
<path d="M96.9649 99.4117H15.332V83.3073C15.332 80.4888 15.8872 77.6979 16.9658 75.0939C18.0444 72.49 19.6253 70.124 21.6183 68.131C25.6433 64.106 31.1024 61.8447 36.7946 61.8447H75.5623C81.2546 61.8447 86.7136 64.106 90.7387 68.131C94.7637 72.156 97.0249 77.6151 97.0249 83.3073V89.8361" stroke="#181818" stroke-width="2.63" stroke-miterlimit="10" stroke-linecap="square"/>
<path d="M59.3821 69.0339L61.0181 61.8447H51.2773L52.6582 69.0339" stroke="#ADACAC" stroke-width="2.63" stroke-linecap="square" stroke-linejoin="round"/>
<path d="M59.3821 69.0339L61.0181 61.8447H51.2773L52.6582 69.0339" stroke="url(#paint7_linear_393:114)" stroke-width="2.63" stroke-linecap="square" stroke-linejoin="round"/>
<path d="M59.3821 69.0339L61.0181 61.8447H51.2773L52.6582 69.0339" stroke="#181818" stroke-width="2.63" stroke-linecap="square" stroke-linejoin="round"/>
<path d="M61.0199 73.1762L59.8792 69.6191H52.4348L49.9434 77.5288" stroke="#ADACAC" stroke-width="2.63" stroke-miterlimit="10"/>
<path d="M61.0199 73.1762L59.8792 69.6191H52.4348L49.9434 77.5288" stroke="url(#paint8_linear_393:114)" stroke-width="2.63" stroke-miterlimit="10"/>
<path d="M61.0199 73.1762L59.8792 69.6191H52.4348L49.9434 77.5288" stroke="#181818" stroke-width="2.63" stroke-miterlimit="10"/>
<path d="M4 99.4116H108.311" stroke="#ADACAC" stroke-width="2.63" stroke-miterlimit="10" stroke-linecap="square"/>
<path d="M4 99.4116H108.311" stroke="url(#paint9_linear_393:114)" stroke-width="2.63" stroke-miterlimit="10" stroke-linecap="square"/>
<path d="M4 99.4116H108.311" stroke="#181818" stroke-width="2.63" stroke-miterlimit="10" stroke-linecap="square"/>
<defs>
<linearGradient id="paint0_linear_393:114" x1="56.1469" y1="99.4116" x2="56.1469" y2="114.676" gradientUnits="userSpaceOnUse">
<stop stop-color="#8C00FF"/>
<stop offset="1" stop-color="#7100FF"/>
</linearGradient>
<linearGradient id="paint1_linear_393:114" x1="65.9927" y1="56.5464" x2="65.9927" y2="59.6682" gradientUnits="userSpaceOnUse">
<stop stop-color="#8C00FF"/>
<stop offset="1" stop-color="#7100FF"/>
</linearGradient>
<linearGradient id="paint2_linear_393:114" x1="46.6635" y1="51.1133" x2="46.6635" y2="59.6683" gradientUnits="userSpaceOnUse">
<stop stop-color="#8C00FF"/>
<stop offset="1" stop-color="#7100FF"/>
</linearGradient>
<linearGradient id="paint3_linear_393:114" x1="56.1559" y1="25.5386" x2="56.1559" y2="53.1247" gradientUnits="userSpaceOnUse">
<stop stop-color="#8C00FF"/>
<stop offset="1" stop-color="#7100FF"/>
</linearGradient>
<linearGradient id="paint4_linear_393:114" x1="55.7987" y1="2" x2="55.7987" y2="23.9635" gradientUnits="userSpaceOnUse">
<stop stop-color="#8C00FF"/>
<stop offset="1" stop-color="#7100FF"/>
</linearGradient>
<linearGradient id="paint5_linear_393:114" x1="56.1468" y1="61.8447" x2="56.1468" y2="85.8888" gradientUnits="userSpaceOnUse">
<stop stop-color="#8C00FF"/>
<stop offset="1" stop-color="#7100FF"/>
</linearGradient>
<linearGradient id="paint6_linear_393:114" x1="56.1785" y1="61.8447" x2="56.1785" y2="99.4117" gradientUnits="userSpaceOnUse">
<stop stop-color="#8C00FF"/>
<stop offset="1" stop-color="#7100FF"/>
</linearGradient>
<linearGradient id="paint7_linear_393:114" x1="56.1477" y1="61.8447" x2="56.1477" y2="69.0339" gradientUnits="userSpaceOnUse">
<stop stop-color="#8C00FF"/>
<stop offset="1" stop-color="#7100FF"/>
</linearGradient>
<linearGradient id="paint8_linear_393:114" x1="55.4816" y1="69.6191" x2="55.4816" y2="77.5288" gradientUnits="userSpaceOnUse">
<stop stop-color="#8C00FF"/>
<stop offset="1" stop-color="#7100FF"/>
</linearGradient>
<linearGradient id="paint9_linear_393:114" x1="56.1556" y1="99.4116" x2="56.1556" y2="100.412" gradientUnits="userSpaceOnUse">
<stop stop-color="#8C00FF"/>
<stop offset="1" stop-color="#7100FF"/>
</linearGradient>
</defs>
</svg>
