<svg width="113" height="125" viewBox="0 0 113 125" fill="none" xmlns="http://www.w3.org/2000/svg">
<rect x="0.0502525" y="69" width="81" height="79" rx="10.5" transform="rotate(-45 0.0502525 69)" stroke="#F8B043" stroke-width="7"/>
<path d="M56.7859 105.768H18.4473V2H93.0437V9.45485" stroke="#181818" stroke-width="2.63" stroke-miterlimit="10" stroke-linecap="square"/>
<path d="M93.0441 23.834V105.768H78.5879" stroke="#ADACAC" stroke-width="2.63" stroke-miterlimit="10" stroke-linecap="square"/>
<path d="M93.0441 23.834V105.768H78.5879" stroke="url(#paint0_linear_393:143)" stroke-width="2.63" stroke-miterlimit="10" stroke-linecap="square"/>
<path d="M93.0441 23.834V105.768H78.5879" stroke="#181818" stroke-width="2.63" stroke-miterlimit="10" stroke-linecap="square"/>
<path d="M67.1777 19.2412H77.0173" stroke="#ADACAC" stroke-width="2.63" stroke-miterlimit="10" stroke-linecap="square"/>
<path d="M67.1777 19.2412H77.0173" stroke="url(#paint1_linear_393:143)" stroke-width="2.63" stroke-miterlimit="10" stroke-linecap="square"/>
<path d="M67.1777 19.2412H77.0173" stroke="#181818" stroke-width="2.63" stroke-miterlimit="10" stroke-linecap="square"/>
<path d="M34.4629 19.2412H56.5125" stroke="#ADACAC" stroke-width="2.63" stroke-miterlimit="10" stroke-linecap="square"/>
<path d="M34.4629 19.2412H56.5125" stroke="url(#paint2_linear_393:143)" stroke-width="2.63" stroke-miterlimit="10" stroke-linecap="square"/>
<path d="M34.4629 19.2412H56.5125" stroke="#181818" stroke-width="2.63" stroke-miterlimit="10" stroke-linecap="square"/>
<path d="M34.4629 19.2412H77.0185" stroke="#ADACAC" stroke-width="2.63" stroke-miterlimit="10" stroke-linecap="square"/>
<path d="M34.4629 19.2412H77.0185" stroke="url(#paint3_linear_393:143)" stroke-width="2.63" stroke-miterlimit="10" stroke-linecap="square"/>
<path d="M34.4629 19.2412H77.0185" stroke="#181818" stroke-width="2.63" stroke-miterlimit="10" stroke-linecap="square"/>
<path d="M67.1777 33.2988H77.0173" stroke="#ADACAC" stroke-width="2.63" stroke-miterlimit="10" stroke-linecap="square"/>
<path d="M67.1777 33.2988H77.0173" stroke="url(#paint4_linear_393:143)" stroke-width="2.63" stroke-miterlimit="10" stroke-linecap="square"/>
<path d="M67.1777 33.2988H77.0173" stroke="#181818" stroke-width="2.63" stroke-miterlimit="10" stroke-linecap="square"/>
<path d="M34.4629 33.2988H56.5125" stroke="#ADACAC" stroke-width="2.63" stroke-miterlimit="10" stroke-linecap="square"/>
<path d="M34.4629 33.2988H56.5125" stroke="url(#paint5_linear_393:143)" stroke-width="2.63" stroke-miterlimit="10" stroke-linecap="square"/>
<path d="M34.4629 33.2988H56.5125" stroke="#181818" stroke-width="2.63" stroke-miterlimit="10" stroke-linecap="square"/>
<path d="M34.4629 47.3711H77.0185" stroke="#ADACAC" stroke-width="2.63" stroke-miterlimit="10" stroke-linecap="square"/>
<path d="M34.4629 47.3711H77.0185" stroke="url(#paint6_linear_393:143)" stroke-width="2.63" stroke-miterlimit="10" stroke-linecap="square"/>
<path d="M34.4629 47.3711H77.0185" stroke="#181818" stroke-width="2.63" stroke-miterlimit="10" stroke-linecap="square"/>
<path d="M55.7383 61.4297H77.0161" stroke="#ADACAC" stroke-width="2.63" stroke-miterlimit="10" stroke-linecap="square"/>
<path d="M55.7383 61.4297H77.0161" stroke="url(#paint7_linear_393:143)" stroke-width="2.63" stroke-miterlimit="10" stroke-linecap="square"/>
<path d="M55.7383 61.4297H77.0161" stroke="#181818" stroke-width="2.63" stroke-miterlimit="10" stroke-linecap="square"/>
<path d="M34.4629 61.4297H45.4877" stroke="#ADACAC" stroke-width="2.63" stroke-miterlimit="10" stroke-linecap="square"/>
<path d="M34.4629 61.4297H45.4877" stroke="url(#paint8_linear_393:143)" stroke-width="2.63" stroke-miterlimit="10" stroke-linecap="square"/>
<path d="M34.4629 61.4297H45.4877" stroke="#181818" stroke-width="2.63" stroke-miterlimit="10" stroke-linecap="square"/>
<path d="M34.4629 75.5015H48.7124" stroke="#ADACAC" stroke-width="2.63" stroke-miterlimit="10" stroke-linecap="square"/>
<path d="M34.4629 75.5015H48.7124" stroke="url(#paint9_linear_393:143)" stroke-width="2.63" stroke-miterlimit="10" stroke-linecap="square"/>
<path d="M34.4629 75.5015H48.7124" stroke="#181818" stroke-width="2.63" stroke-miterlimit="10" stroke-linecap="square"/>
<path d="M34.4629 89.5596H48.7124" stroke="#ADACAC" stroke-width="2.63" stroke-miterlimit="10" stroke-linecap="square"/>
<path d="M34.4629 89.5596H48.7124" stroke="url(#paint10_linear_393:143)" stroke-width="2.63" stroke-miterlimit="10" stroke-linecap="square"/>
<path d="M34.4629 89.5596H48.7124" stroke="#181818" stroke-width="2.63" stroke-miterlimit="10" stroke-linecap="square"/>
<path d="M59.9435 95.6323L58.1657 105.768L56.9668 112.552L67.6884 108.909L78.41 112.552L77.211 105.768L76.6598 102.64" stroke="#ADACAC" stroke-width="2.63" stroke-miterlimit="10" stroke-linecap="square"/>
<path d="M59.9435 95.6323L58.1657 105.768L56.9668 112.552L67.6884 108.909L78.41 112.552L77.211 105.768L76.6598 102.64" stroke="url(#paint11_linear_393:143)" stroke-width="2.63" stroke-miterlimit="10" stroke-linecap="square"/>
<path d="M59.9435 95.6323L58.1657 105.768L56.9668 112.552L67.6884 108.909L78.41 112.552L77.211 105.768L76.6598 102.64" stroke="#181818" stroke-width="2.63" stroke-miterlimit="10" stroke-linecap="square"/>
<path d="M73.6827 76.0039C71.5923 74.6557 69.1184 74.0506 66.651 74.2838C64.1835 74.517 61.8629 75.5754 60.0547 77.292C58.2466 79.0087 57.0537 81.2861 56.6642 83.7653C56.2746 86.2445 56.7106 88.7845 57.9032 90.9851C59.0959 93.1856 60.9775 94.9215 63.2515 95.9193C65.5255 96.917 68.0626 97.1198 70.463 96.4957C72.8633 95.8717 74.9904 94.4562 76.509 92.4724C78.0277 90.4886 78.8514 88.0493 78.8506 85.5389" stroke="#ADACAC" stroke-width="2.63" stroke-miterlimit="10" stroke-linecap="square"/>
<path d="M73.6827 76.0039C71.5923 74.6557 69.1184 74.0506 66.651 74.2838C64.1835 74.517 61.8629 75.5754 60.0547 77.292C58.2466 79.0087 57.0537 81.2861 56.6642 83.7653C56.2746 86.2445 56.7106 88.7845 57.9032 90.9851C59.0959 93.1856 60.9775 94.9215 63.2515 95.9193C65.5255 96.917 68.0626 97.1198 70.463 96.4957C72.8633 95.8717 74.9904 94.4562 76.509 92.4724C78.0277 90.4886 78.8514 88.0493 78.8506 85.5389" stroke="url(#paint12_linear_393:143)" stroke-width="2.63" stroke-miterlimit="10" stroke-linecap="square"/>
<path d="M73.6827 76.0039C71.5923 74.6557 69.1184 74.0506 66.651 74.2838C64.1835 74.517 61.8629 75.5754 60.0547 77.292C58.2466 79.0087 57.0537 81.2861 56.6642 83.7653C56.2746 86.2445 56.7106 88.7845 57.9032 90.9851C59.0959 93.1856 60.9775 94.9215 63.2515 95.9193C65.5255 96.917 68.0626 97.1198 70.463 96.4957C72.8633 95.8717 74.9904 94.4562 76.509 92.4724C78.0277 90.4886 78.8514 88.0493 78.8506 85.5389" stroke="#181818" stroke-width="2.63" stroke-miterlimit="10" stroke-linecap="square"/>
<path d="M67.6748 89.6575C69.92 89.6575 71.7401 87.8137 71.7401 85.5392C71.7401 83.2647 69.92 81.4209 67.6748 81.4209C65.4295 81.4209 63.6094 83.2647 63.6094 85.5392C63.6094 87.8137 65.4295 89.6575 67.6748 89.6575Z" stroke="#ADACAC" stroke-width="2.63" stroke-miterlimit="10" stroke-linecap="square"/>
<path d="M67.6748 89.6575C69.92 89.6575 71.7401 87.8137 71.7401 85.5392C71.7401 83.2647 69.92 81.4209 67.6748 81.4209C65.4295 81.4209 63.6094 83.2647 63.6094 85.5392C63.6094 87.8137 65.4295 89.6575 67.6748 89.6575Z" stroke="url(#paint13_linear_393:143)" stroke-width="2.63" stroke-miterlimit="10" stroke-linecap="square"/>
<path d="M67.6748 89.6575C69.92 89.6575 71.7401 87.8137 71.7401 85.5392C71.7401 83.2647 69.92 81.4209 67.6748 81.4209C65.4295 81.4209 63.6094 83.2647 63.6094 85.5392C63.6094 87.8137 65.4295 89.6575 67.6748 89.6575Z" stroke="#181818" stroke-width="2.63" stroke-miterlimit="10" stroke-linecap="square"/>
<defs>
<linearGradient id="paint0_linear_393:143" x1="85.816" y1="23.834" x2="85.816" y2="105.768" gradientUnits="userSpaceOnUse">
<stop stop-color="#8C00FF"/>
<stop offset="1" stop-color="#7100FF"/>
</linearGradient>
<linearGradient id="paint1_linear_393:143" x1="72.0975" y1="19.2412" x2="72.0975" y2="20.2412" gradientUnits="userSpaceOnUse">
<stop stop-color="#8C00FF"/>
<stop offset="1" stop-color="#7100FF"/>
</linearGradient>
<linearGradient id="paint2_linear_393:143" x1="45.4877" y1="19.2412" x2="45.4877" y2="20.2412" gradientUnits="userSpaceOnUse">
<stop stop-color="#8C00FF"/>
<stop offset="1" stop-color="#7100FF"/>
</linearGradient>
<linearGradient id="paint3_linear_393:143" x1="55.7407" y1="19.2412" x2="55.7407" y2="20.2412" gradientUnits="userSpaceOnUse">
<stop stop-color="#8C00FF"/>
<stop offset="1" stop-color="#7100FF"/>
</linearGradient>
<linearGradient id="paint4_linear_393:143" x1="72.0975" y1="33.2988" x2="72.0975" y2="34.2988" gradientUnits="userSpaceOnUse">
<stop stop-color="#8C00FF"/>
<stop offset="1" stop-color="#7100FF"/>
</linearGradient>
<linearGradient id="paint5_linear_393:143" x1="45.4877" y1="33.2988" x2="45.4877" y2="34.2988" gradientUnits="userSpaceOnUse">
<stop stop-color="#8C00FF"/>
<stop offset="1" stop-color="#7100FF"/>
</linearGradient>
<linearGradient id="paint6_linear_393:143" x1="55.7407" y1="47.3711" x2="55.7407" y2="48.3711" gradientUnits="userSpaceOnUse">
<stop stop-color="#8C00FF"/>
<stop offset="1" stop-color="#7100FF"/>
</linearGradient>
<linearGradient id="paint7_linear_393:143" x1="66.3772" y1="61.4297" x2="66.3772" y2="62.4297" gradientUnits="userSpaceOnUse">
<stop stop-color="#8C00FF"/>
<stop offset="1" stop-color="#7100FF"/>
</linearGradient>
<linearGradient id="paint8_linear_393:143" x1="39.9753" y1="61.4297" x2="39.9753" y2="62.4297" gradientUnits="userSpaceOnUse">
<stop stop-color="#8C00FF"/>
<stop offset="1" stop-color="#7100FF"/>
</linearGradient>
<linearGradient id="paint9_linear_393:143" x1="41.5877" y1="75.5015" x2="41.5877" y2="76.5015" gradientUnits="userSpaceOnUse">
<stop stop-color="#8C00FF"/>
<stop offset="1" stop-color="#7100FF"/>
</linearGradient>
<linearGradient id="paint10_linear_393:143" x1="41.5877" y1="89.5596" x2="41.5877" y2="90.5596" gradientUnits="userSpaceOnUse">
<stop stop-color="#8C00FF"/>
<stop offset="1" stop-color="#7100FF"/>
</linearGradient>
<linearGradient id="paint11_linear_393:143" x1="67.6884" y1="95.6323" x2="67.6884" y2="112.552" gradientUnits="userSpaceOnUse">
<stop stop-color="#8C00FF"/>
<stop offset="1" stop-color="#7100FF"/>
</linearGradient>
<linearGradient id="paint12_linear_393:143" x1="67.688" y1="74.2349" x2="67.688" y2="96.8507" gradientUnits="userSpaceOnUse">
<stop stop-color="#8C00FF"/>
<stop offset="1" stop-color="#7100FF"/>
</linearGradient>
<linearGradient id="paint13_linear_393:143" x1="67.6748" y1="81.4209" x2="67.6748" y2="89.6575" gradientUnits="userSpaceOnUse">
<stop stop-color="#8C00FF"/>
<stop offset="1" stop-color="#7100FF"/>
</linearGradient>
</defs>
</svg>
