<svg width="113" height="119" viewBox="0 0 113 119" fill="none" xmlns="http://www.w3.org/2000/svg">
<rect x="0.0502525" y="63.3257" width="81" height="79" rx="10.5" transform="rotate(-45 0.0502525 63.3257)" stroke="#F8B043" stroke-width="7"/>
<path d="M25.4688 74.9313L50.39 99.6883L90.1237 60.195L98.5341 51.8354" stroke="#ADACAC" stroke-width="2.63" stroke-miterlimit="10" stroke-linecap="square"/>
<path d="M25.4688 74.9313L50.39 99.6883L90.1237 60.195L98.5341 51.8354" stroke="#181818" stroke-width="2.63" stroke-miterlimit="10" stroke-linecap="square"/>
<path d="M98.5324 51.8354L90.122 60.195L50.3883 99.6883L25.467 74.9313L17.0566 66.5584" stroke="#ADACAC" stroke-width="2.63" stroke-miterlimit="10" stroke-linecap="square"/>
<path d="M98.5324 51.8354L90.122 60.195L50.3883 99.6883L25.467 74.9313L17.0566 66.5584" stroke="#181818" stroke-width="2.63" stroke-miterlimit="10" stroke-linecap="square"/>
<path d="M8.64648 58.2127L50.3885 99.7021L98.5327 51.8493L106.943 43.4897" stroke="#ADACAC" stroke-width="2.63" stroke-miterlimit="10" stroke-linecap="square"/>
<path d="M8.64648 58.2127L50.3885 99.7021L98.5327 51.8493L106.943 43.4897" stroke="#181818" stroke-width="2.63" stroke-miterlimit="10" stroke-linecap="square"/>
<path d="M106.944 55.9082L98.5331 64.2677L50.389 112.134L8 69.9613V66.0495" stroke="#ADACAC" stroke-width="2.63" stroke-miterlimit="10" stroke-linecap="square"/>
<path d="M106.944 55.9082L98.5331 64.2677L50.389 112.134L8 69.9613V66.0495" stroke="#181818" stroke-width="2.63" stroke-miterlimit="10" stroke-linecap="square"/>
<path d="M99.0448 35.6524L106.943 43.4894L98.5327 51.8489L50.3885 99.7018L8.64648 58.2123L65.2011 2L87.6288 24.292" stroke="#ADACAC" stroke-width="2.63" stroke-miterlimit="10" stroke-linecap="square"/>
<path d="M99.0448 35.6524L106.943 43.4894L98.5327 51.8489L50.3885 99.7018L8.64648 58.2123L65.2011 2L87.6288 24.292" stroke="#181818" stroke-width="2.63" stroke-miterlimit="10" stroke-linecap="square"/>
<path d="M99.0447 35.6523L80.5256 54.0459L78.4634 44.7621L69.123 42.7124L87.6286 24.292" stroke="#ADACAC" stroke-width="2.63" stroke-miterlimit="10" stroke-linecap="square"/>
<path d="M99.0447 35.6523L80.5256 54.0459L78.4634 44.7621L69.123 42.7124L87.6286 24.292" stroke="#181818" stroke-width="2.63" stroke-miterlimit="10" stroke-linecap="square"/>
</svg>
