<svg width="114" height="128" viewBox="0 0 114 128" fill="none" xmlns="http://www.w3.org/2000/svg">
<rect x="0.0502525" y="72" width="81" height="79" rx="10.5" transform="rotate(-45 0.0502525 72)" stroke="#F8B043" stroke-width="7"/>
<path d="M59.5779 14.8604L87.1744 42.4569L66.0316 63.5998L38.3789 35.9471" stroke="#ADACAC" stroke-width="2.63" stroke-miterlimit="10" stroke-linecap="square"/>
<path d="M59.5779 14.8604L87.1744 42.4569L66.0316 63.5998L38.3789 35.9471" stroke="url(#paint0_linear_393:167)" stroke-width="2.63" stroke-miterlimit="10" stroke-linecap="square"/>
<path d="M59.5779 14.8604L87.1744 42.4569L66.0316 63.5998L38.3789 35.9471" stroke="#181818" stroke-width="2.63" stroke-miterlimit="10" stroke-linecap="square"/>
<path d="M53.237 56.4028L56.043 53.5968L47.2182 44.7861L32.7676 59.2508" stroke="#ADACAC" stroke-width="2.63" stroke-miterlimit="10" stroke-linecap="square"/>
<path d="M53.237 56.4028L56.043 53.5968L47.2182 44.7861L32.7676 59.2508" stroke="url(#paint1_linear_393:167)" stroke-width="2.63" stroke-miterlimit="10" stroke-linecap="square"/>
<path d="M53.237 56.4028L56.043 53.5968L47.2182 44.7861L32.7676 59.2508" stroke="#181818" stroke-width="2.63" stroke-miterlimit="10" stroke-linecap="square"/>
<path d="M53.2087 56.4312L41.0449 68.595" stroke="#ADACAC" stroke-width="2.63" stroke-miterlimit="10" stroke-linecap="square"/>
<path d="M53.2087 56.4312L41.0449 68.595" stroke="url(#paint2_linear_393:167)" stroke-width="2.63" stroke-miterlimit="10" stroke-linecap="square"/>
<path d="M53.2087 56.4312L41.0449 68.595" stroke="#181818" stroke-width="2.63" stroke-miterlimit="10" stroke-linecap="square"/>
<path d="M24.8545 63.4035C25.6813 62.5704 26.6649 61.9092 27.7484 61.458C28.832 61.0067 29.9941 60.7744 31.1679 60.7744C32.3417 60.7744 33.5038 61.0067 34.5874 61.458C35.6709 61.9092 36.6545 62.5704 37.4813 63.4035V63.4035C38.311 64.2322 38.9693 65.2164 39.4184 66.2997C39.8675 67.383 40.0987 68.5442 40.0987 69.7169C40.0987 70.8896 39.8675 72.0508 39.4184 73.1341C38.9693 74.2174 38.311 75.2016 37.4813 76.0303L14.6268 98.7726L2 86.1458L18.7235 69.5345" stroke="#ADACAC" stroke-width="2.63" stroke-miterlimit="10" stroke-linecap="square"/>
<path d="M24.8545 63.4035C25.6813 62.5704 26.6649 61.9092 27.7484 61.458C28.832 61.0067 29.9941 60.7744 31.1679 60.7744C32.3417 60.7744 33.5038 61.0067 34.5874 61.458C35.6709 61.9092 36.6545 62.5704 37.4813 63.4035V63.4035C38.311 64.2322 38.9693 65.2164 39.4184 66.2997C39.8675 67.383 40.0987 68.5442 40.0987 69.7169C40.0987 70.8896 39.8675 72.0508 39.4184 73.1341C38.9693 74.2174 38.311 75.2016 37.4813 76.0303L14.6268 98.7726L2 86.1458L18.7235 69.5345" stroke="url(#paint3_linear_393:167)" stroke-width="2.63" stroke-miterlimit="10" stroke-linecap="square"/>
<path d="M24.8545 63.4035C25.6813 62.5704 26.6649 61.9092 27.7484 61.458C28.832 61.0067 29.9941 60.7744 31.1679 60.7744C32.3417 60.7744 33.5038 61.0067 34.5874 61.458C35.6709 61.9092 36.6545 62.5704 37.4813 63.4035V63.4035C38.311 64.2322 38.9693 65.2164 39.4184 66.2997C39.8675 67.383 40.0987 68.5442 40.0987 69.7169C40.0987 70.8896 39.8675 72.0508 39.4184 73.1341C38.9693 74.2174 38.311 75.2016 37.4813 76.0303L14.6268 98.7726L2 86.1458L18.7235 69.5345" stroke="#181818" stroke-width="2.63" stroke-miterlimit="10" stroke-linecap="square"/>
<path d="M56.8003 16.4882L58.2033 15.0852C58.9176 14.3758 59.4845 13.5321 59.8714 12.6026C60.2583 11.6732 60.4575 10.6764 60.4575 9.66969C60.4575 8.66295 60.2583 7.66616 59.8714 6.73673C59.4845 5.8073 58.9176 4.96359 58.2033 4.2542V4.2542C57.4939 3.53986 56.6502 2.97293 55.7207 2.58605C54.7913 2.19917 53.7945 2 52.7878 2C51.781 2 50.7842 2.19917 49.8548 2.58605C48.9254 2.97293 48.0817 3.53986 47.3723 4.2542L41.3254 10.301L27.8148 23.8117C26.3789 25.2482 25.5723 27.1961 25.5723 29.2272C25.5723 31.2583 26.3789 33.2062 27.8148 34.6427V34.6427C29.2513 36.0786 31.1992 36.8852 33.2303 36.8852C35.2613 36.8852 37.2093 36.0786 38.6458 34.6427L51.1042 22.1842L71.6157 42.6958" stroke="#ADACAC" stroke-width="2.63" stroke-miterlimit="10" stroke-linecap="square"/>
<path d="M56.8003 16.4882L58.2033 15.0852C58.9176 14.3758 59.4845 13.5321 59.8714 12.6026C60.2583 11.6732 60.4575 10.6764 60.4575 9.66969C60.4575 8.66295 60.2583 7.66616 59.8714 6.73673C59.4845 5.8073 58.9176 4.96359 58.2033 4.2542V4.2542C57.4939 3.53986 56.6502 2.97293 55.7207 2.58605C54.7913 2.19917 53.7945 2 52.7878 2C51.781 2 50.7842 2.19917 49.8548 2.58605C48.9254 2.97293 48.0817 3.53986 47.3723 4.2542L41.3254 10.301L27.8148 23.8117C26.3789 25.2482 25.5723 27.1961 25.5723 29.2272C25.5723 31.2583 26.3789 33.2062 27.8148 34.6427V34.6427C29.2513 36.0786 31.1992 36.8852 33.2303 36.8852C35.2613 36.8852 37.2093 36.0786 38.6458 34.6427L51.1042 22.1842L71.6157 42.6958" stroke="url(#paint4_linear_393:167)" stroke-width="2.63" stroke-miterlimit="10" stroke-linecap="square"/>
<path d="M56.8003 16.4882L58.2033 15.0852C58.9176 14.3758 59.4845 13.5321 59.8714 12.6026C60.2583 11.6732 60.4575 10.6764 60.4575 9.66969C60.4575 8.66295 60.2583 7.66616 59.8714 6.73673C59.4845 5.8073 58.9176 4.96359 58.2033 4.2542V4.2542C57.4939 3.53986 56.6502 2.97293 55.7207 2.58605C54.7913 2.19917 53.7945 2 52.7878 2C51.781 2 50.7842 2.19917 49.8548 2.58605C48.9254 2.97293 48.0817 3.53986 47.3723 4.2542L41.3254 10.301L27.8148 23.8117C26.3789 25.2482 25.5723 27.1961 25.5723 29.2272C25.5723 31.2583 26.3789 33.2062 27.8148 34.6427V34.6427C29.2513 36.0786 31.1992 36.8852 33.2303 36.8852C35.2613 36.8852 37.2093 36.0786 38.6458 34.6427L51.1042 22.1842L71.6157 42.6958" stroke="#181818" stroke-width="2.63" stroke-miterlimit="10" stroke-linecap="square"/>
<path d="M97.2252 54.0731C100.217 51.0816 100.217 46.2314 97.2252 43.2399C94.2337 40.2484 89.3835 40.2484 86.392 43.2399L66.8188 62.8132C63.8273 65.8047 63.8273 70.6549 66.8188 73.6464C69.8103 76.638 74.6605 76.638 77.652 73.6464L97.2252 54.0731Z" stroke="#ADACAC" stroke-width="2.63" stroke-miterlimit="10" stroke-linecap="square"/>
<path d="M97.2252 54.0731C100.217 51.0816 100.217 46.2314 97.2252 43.2399C94.2337 40.2484 89.3835 40.2484 86.392 43.2399L66.8188 62.8132C63.8273 65.8047 63.8273 70.6549 66.8188 73.6464C69.8103 76.638 74.6605 76.638 77.652 73.6464L97.2252 54.0731Z" stroke="url(#paint5_linear_393:167)" stroke-width="2.63" stroke-miterlimit="10" stroke-linecap="square"/>
<path d="M97.2252 54.0731C100.217 51.0816 100.217 46.2314 97.2252 43.2399C94.2337 40.2484 89.3835 40.2484 86.392 43.2399L66.8188 62.8132C63.8273 65.8047 63.8273 70.6549 66.8188 73.6464C69.8103 76.638 74.6605 76.638 77.652 73.6464L97.2252 54.0731Z" stroke="#181818" stroke-width="2.63" stroke-miterlimit="10" stroke-linecap="square"/>
<path d="M67.7856 92.6138C68.2222 91.2567 69.0782 90.0731 70.2304 89.2335C71.3826 88.394 72.7715 87.9417 74.1972 87.9419H95.34C96.2237 87.9401 97.0991 88.1125 97.9161 88.4494C98.733 88.7863 99.4755 89.281 100.101 89.9053C100.727 90.5295 101.223 91.2709 101.561 92.0872C101.9 92.9035 102.074 93.7785 102.074 94.6622V99.5866H67.4629" stroke="#ADACAC" stroke-width="2.63" stroke-miterlimit="10" stroke-linecap="square"/>
<path d="M67.7856 92.6138C68.2222 91.2567 69.0782 90.0731 70.2304 89.2335C71.3826 88.394 72.7715 87.9417 74.1972 87.9419H95.34C96.2237 87.9401 97.0991 88.1125 97.9161 88.4494C98.733 88.7863 99.4755 89.281 100.101 89.9053C100.727 90.5295 101.223 91.2709 101.561 92.0872C101.9 92.9035 102.074 93.7785 102.074 94.6622V99.5866H67.4629" stroke="url(#paint6_linear_393:167)" stroke-width="2.63" stroke-miterlimit="10" stroke-linecap="square"/>
<path d="M67.7856 92.6138C68.2222 91.2567 69.0782 90.0731 70.2304 89.2335C71.3826 88.394 72.7715 87.9417 74.1972 87.9419H95.34C96.2237 87.9401 97.0991 88.1125 97.9161 88.4494C98.733 88.7863 99.4755 89.281 100.101 89.9053C100.727 90.5295 101.223 91.2709 101.561 92.0872C101.9 92.9035 102.074 93.7785 102.074 94.6622V99.5866H67.4629" stroke="#181818" stroke-width="2.63" stroke-miterlimit="10" stroke-linecap="square"/>
<path d="M62.8334 99.5864H106.719C108.073 99.5864 109.372 100.124 110.33 101.082C111.287 102.04 111.825 103.339 111.825 104.693V115.608H57.7266V104.693C57.7266 103.339 58.2646 102.04 59.2223 101.082C60.18 100.124 61.479 99.5864 62.8334 99.5864V99.5864Z" stroke="#ADACAC" stroke-width="2.63" stroke-miterlimit="10" stroke-linecap="square"/>
<path d="M62.8334 99.5864H106.719C108.073 99.5864 109.372 100.124 110.33 101.082C111.287 102.04 111.825 103.339 111.825 104.693V115.608H57.7266V104.693C57.7266 103.339 58.2646 102.04 59.2223 101.082C60.18 100.124 61.479 99.5864 62.8334 99.5864V99.5864Z" stroke="url(#paint7_linear_393:167)" stroke-width="2.63" stroke-miterlimit="10" stroke-linecap="square"/>
<path d="M62.8334 99.5864H106.719C108.073 99.5864 109.372 100.124 110.33 101.082C111.287 102.04 111.825 103.339 111.825 104.693V115.608H57.7266V104.693C57.7266 103.339 58.2646 102.04 59.2223 101.082C60.18 100.124 61.479 99.5864 62.8334 99.5864V99.5864Z" stroke="#181818" stroke-width="2.63" stroke-miterlimit="10" stroke-linecap="square"/>
<defs>
<linearGradient id="paint0_linear_393:167" x1="62.7767" y1="14.8604" x2="62.7767" y2="63.5998" gradientUnits="userSpaceOnUse">
<stop stop-color="#8C00FF"/>
<stop offset="1" stop-color="#7100FF"/>
</linearGradient>
<linearGradient id="paint1_linear_393:167" x1="44.4053" y1="44.7861" x2="44.4053" y2="59.2508" gradientUnits="userSpaceOnUse">
<stop stop-color="#8C00FF"/>
<stop offset="1" stop-color="#7100FF"/>
</linearGradient>
<linearGradient id="paint2_linear_393:167" x1="47.1268" y1="56.4312" x2="47.1268" y2="68.595" gradientUnits="userSpaceOnUse">
<stop stop-color="#8C00FF"/>
<stop offset="1" stop-color="#7100FF"/>
</linearGradient>
<linearGradient id="paint3_linear_393:167" x1="21.0493" y1="60.7744" x2="21.0493" y2="98.7726" gradientUnits="userSpaceOnUse">
<stop stop-color="#8C00FF"/>
<stop offset="1" stop-color="#7100FF"/>
</linearGradient>
<linearGradient id="paint4_linear_393:167" x1="48.594" y1="2" x2="48.594" y2="42.6958" gradientUnits="userSpaceOnUse">
<stop stop-color="#8C00FF"/>
<stop offset="1" stop-color="#7100FF"/>
</linearGradient>
<linearGradient id="paint5_linear_393:167" x1="97.2252" y1="43.2399" x2="66.8186" y2="73.6463" gradientUnits="userSpaceOnUse">
<stop stop-color="#8C00FF"/>
<stop offset="1" stop-color="#7100FF"/>
</linearGradient>
<linearGradient id="paint6_linear_393:167" x1="84.7686" y1="87.9419" x2="84.7686" y2="99.5866" gradientUnits="userSpaceOnUse">
<stop stop-color="#8C00FF"/>
<stop offset="1" stop-color="#7100FF"/>
</linearGradient>
<linearGradient id="paint7_linear_393:167" x1="84.776" y1="99.5864" x2="84.776" y2="115.608" gradientUnits="userSpaceOnUse">
<stop stop-color="#8C00FF"/>
<stop offset="1" stop-color="#7100FF"/>
</linearGradient>
</defs>
</svg>
