<svg width="81" height="68" viewBox="0 0 81 68" fill="none" xmlns="http://www.w3.org/2000/svg">
<g clip-path="url(#clip0_1203_134)">
<path d="M14.4502 56.9092H21.8941C22.5826 56.9092 23.1334 56.4468 23.1334 55.8688V50.66C23.1334 50.082 22.5826 49.6196 21.8941 49.6196H14.4502C13.7617 49.6196 13.2109 50.082 13.2109 50.66V55.8688C13.2109 56.44 13.7698 56.9092 14.4502 56.9092ZM15.6976 51.7004H20.6548V54.8216H15.6895V51.7004H15.6976Z" fill="white"/>
<path d="M29.3389 56.9092H36.7828C37.4713 56.9092 38.0221 56.4468 38.0221 55.8688V50.66C38.0221 50.082 37.4713 49.6196 36.7828 49.6196H29.3389C28.6504 49.6196 28.0996 50.082 28.0996 50.66V55.8688C28.0996 56.44 28.6504 56.9092 29.3389 56.9092ZM30.5782 51.7004H35.5435V54.8216H30.5782V51.7004Z" fill="white"/>
<path d="M44.2178 56.9092H51.6617C52.3502 56.9092 52.901 56.4468 52.901 55.8688V50.66C52.901 50.082 52.3502 49.6196 51.6617 49.6196H44.2178C43.5293 49.6196 42.9785 50.082 42.9785 50.66V55.8688C42.9785 56.44 43.5374 56.9092 44.2178 56.9092ZM45.4652 51.7004H50.4305V54.8216H45.4652V51.7004Z" fill="white"/>
<path d="M14.4502 45.4512H21.8941C22.5826 45.4512 23.1334 44.9888 23.1334 44.4108V39.202C23.1334 38.624 22.5826 38.1616 21.8941 38.1616H14.4502C13.7617 38.1616 13.2109 38.624 13.2109 39.202V44.4108C13.2109 44.9888 13.7698 45.4512 14.4502 45.4512ZM15.6976 40.2492H20.6548V43.3704H15.6895V40.2492H15.6976Z" fill="white"/>
<path d="M29.3389 45.4512H36.7828C37.4713 45.4512 38.0221 44.9888 38.0221 44.4108V39.202C38.0221 38.624 37.4713 38.1616 36.7828 38.1616H29.3389C28.6504 38.1616 28.0996 38.624 28.0996 39.202V44.4108C28.0996 44.9888 28.6504 45.4512 29.3389 45.4512ZM30.5782 40.2492H35.5435V43.3704H30.5782V40.2492Z" fill="white"/>
<path d="M44.2178 45.4512H51.6617C52.3502 45.4512 52.901 44.9888 52.901 44.4108V39.202C52.901 38.624 52.3502 38.1616 51.6617 38.1616H44.2178C43.5293 38.1616 42.9785 38.624 42.9785 39.202V44.4108C42.9785 44.9888 43.5374 45.4512 44.2178 45.4512ZM45.4652 40.2492H50.4305V43.3704H45.4652V40.2492Z" fill="white"/>
<path d="M59.1065 45.4512H66.5504C67.2389 45.4512 67.7897 44.9888 67.7897 44.4108V39.202C67.7897 38.624 67.2389 38.1616 66.5504 38.1616H59.1065C58.418 38.1616 57.8672 38.624 57.8672 39.202V44.4108C57.8672 44.9888 58.418 45.4512 59.1065 45.4512ZM60.3458 40.2492H65.3111V43.3704H60.3458V40.2492Z" fill="white"/>
<path d="M14.4502 34.0001H21.8941C22.5826 34.0001 23.1334 33.5377 23.1334 32.9597V27.7509C23.1334 27.1729 22.5826 26.7104 21.8941 26.7104H14.4502C13.7617 26.7104 13.2109 27.1729 13.2109 27.7509V32.9597C13.2109 33.5377 13.7698 34.0001 14.4502 34.0001ZM15.6976 28.7912H20.6548V31.9124H15.6895V28.7912H15.6976Z" fill="white"/>
<path d="M29.3389 34.0001H36.7828C37.4713 34.0001 38.0221 33.5377 38.0221 32.9597V27.7509C38.0221 27.1729 37.4713 26.7104 36.7828 26.7104H29.3389C28.6504 26.7104 28.0996 27.1729 28.0996 27.7509V32.9597C28.0996 33.5377 28.6504 34.0001 29.3389 34.0001ZM30.5782 28.7912H35.5435V31.9124H30.5782V28.7912Z" fill="white"/>
<path d="M44.2178 34.0001H51.6617C52.3502 34.0001 52.901 33.5377 52.901 32.9597V27.7509C52.901 27.1729 52.3502 26.7104 51.6617 26.7104H44.2178C43.5293 26.7104 42.9785 27.1729 42.9785 27.7509V32.9597C42.9785 33.5377 43.5374 34.0001 44.2178 34.0001ZM45.4652 28.7912H50.4305V31.9124H45.4652V28.7912Z" fill="white"/>
<path d="M59.1065 34.0001H66.5504C67.2389 34.0001 67.7897 33.5377 67.7897 32.9597V27.7509C67.7897 27.1729 67.2389 26.7104 66.5504 26.7104H59.1065C58.418 26.7104 57.8672 27.1729 57.8672 27.7509V32.9597C57.8672 33.5377 58.418 34.0001 59.1065 34.0001ZM60.3458 28.7912H65.3111V31.9124H60.3458V28.7912Z" fill="white"/>
<path d="M75.2334 4.84845H66.5502V3.80125C66.5502 2.07405 64.8816 0.680054 62.8323 0.680054C60.783 0.680054 59.1144 2.08085 59.1144 3.80125V4.84165H21.8948V3.80125C21.8948 2.07405 20.2262 0.680054 18.1769 0.680054C16.1276 0.680054 14.459 2.08085 14.459 3.80125V4.84165H5.77585C3.02995 4.84845 0.810547 6.70485 0.810547 9.01005V63.1584C0.810547 65.4636 3.02995 67.3268 5.77585 67.3268H75.2334C77.9793 67.3268 80.1987 65.4636 80.1987 63.1584V9.01005C80.1906 6.70485 77.9712 4.84845 75.2334 4.84845ZM61.5849 3.80125C61.5849 3.22325 62.1357 2.76085 62.8242 2.76085C63.5127 2.76085 64.0635 3.22325 64.0635 3.80125V6.92245V11.0909C64.0635 11.6689 63.5127 12.1313 62.8242 12.1313C62.1357 12.1313 61.5849 11.6689 61.5849 11.0909V6.92245V3.80125ZM16.9376 3.80125C16.9376 3.22325 17.4884 2.76085 18.1769 2.76085C18.8654 2.76085 19.4162 3.22325 19.4162 3.80125V6.92245V11.0909C19.4162 11.6689 18.8654 12.1313 18.1769 12.1313C17.4884 12.1313 16.9376 11.6689 16.9376 11.0909V6.92245V3.80125ZM77.712 63.1584C77.712 64.3076 76.6023 65.2392 75.2334 65.2392H5.77585C4.40695 65.2392 3.29725 64.3076 3.29725 63.1584V18.3804H77.7201V63.1584H77.712ZM77.712 16.2997H3.28915V9.01005C3.28915 7.86085 4.39885 6.92925 5.76775 6.92925H14.4509V11.0977C14.4509 12.8249 16.1195 14.2189 18.1688 14.2189C20.2181 14.2189 21.8867 12.8181 21.8867 11.0977V6.92925H59.0982V11.0977C59.0982 12.8249 60.7668 14.2189 62.8161 14.2189C64.8654 14.2189 66.534 12.8181 66.534 11.0977V6.92925H75.2172C76.5861 6.92925 77.6958 7.86085 77.6958 9.01005V16.2997H77.712Z" fill="white"/>
</g>
<defs>
<clipPath id="clip0_1203_134">
<rect width="81" height="68" fill="white"/>
</clipPath>
</defs>
</svg>
