<svg width="406" height="88" viewBox="0 0 406 88" fill="none" xmlns="http://www.w3.org/2000/svg">
<path d="M97.3241 47.1552V59.4752H120.524V70.2752H85.4041V14.2752H119.804V25.0752H97.3241V36.5152H118.444V47.1552H97.3241ZM163.275 45.7152V56.8352C163.275 60.4352 164.395 61.4752 168.235 61.1552V70.2752C162.075 71.5552 155.595 70.5152 154.235 65.1552C151.755 68.8352 146.875 71.0752 141.035 71.0752C132.635 71.0752 127.275 66.1952 127.275 58.9952C127.275 50.5952 133.835 46.5152 142.635 46.5152C145.915 46.5152 149.035 46.9152 152.155 47.9552V46.1152C152.155 41.4752 148.395 39.9552 143.275 39.9552C139.675 39.9552 135.595 40.8352 131.755 42.5952L129.595 34.1952C134.955 31.9552 140.235 30.9152 144.875 30.9152C155.195 30.9152 163.275 35.6352 163.275 45.7152ZM143.675 62.4352C148.395 62.4352 152.155 59.4752 152.155 55.1552V54.5952C149.675 53.8752 147.275 53.5552 144.875 53.5552C140.795 53.5552 138.155 54.9152 138.155 58.0352C138.155 60.8352 140.075 62.4352 143.675 62.4352ZM190.578 71.0752C179.618 71.0752 173.698 66.8352 172.978 58.1952H184.098C184.658 61.2352 187.058 62.5152 190.418 62.5152C194.178 62.5152 196.658 61.4752 196.658 59.1552C196.658 56.8352 194.498 55.9552 190.018 55.3152C182.738 54.4352 173.778 52.1952 173.778 42.9952C173.778 35.0752 180.898 30.9152 190.338 30.9152C199.378 30.9152 205.938 35.1552 206.978 43.3952H196.578C196.018 40.8352 194.018 39.4752 190.578 39.4752C186.498 39.4752 184.898 40.9152 184.898 42.6752C184.898 45.0752 187.138 45.7952 191.378 46.4352C199.858 47.7152 207.938 50.0352 207.938 58.8352C207.938 66.5152 201.138 71.0752 190.578 71.0752ZM236.256 45.8752L241.696 31.7152H253.296V32.2752L237.376 73.0752C233.136 83.9552 229.216 87.4752 220.496 87.4752C217.696 87.4752 215.056 86.7552 212.816 85.8752L214.896 77.1552C216.496 77.7152 217.936 78.0352 219.376 78.0352C222.816 78.0352 224.416 76.5952 226.336 71.6352L227.296 69.2352L210.576 32.2752V31.7152H222.496L228.416 45.7952L232.416 56.5152L236.256 45.8752ZM273.183 47.1552V59.4752L296.383 59.4752V70.2752H261.263V14.2752H295.663V25.0752H273.183V36.5152H294.303V47.1552L273.183 47.1552ZM342.561 33.2352V14.2752H354.401V70.4352H349.841L318.721 37.5552L319.041 50.9952V70.2752H307.201V14.0352H311.761L342.881 46.4352L342.561 33.2352ZM362.237 14.2752H403.917V25.0752H389.117V70.2752H377.117V25.0752H362.237V14.2752Z" fill="#003580"/>
<path d="M63.1976 48.0497C63.6686 48.0248 64.1847 48.0859 64.7015 48.2887C65.8721 48.7415 66.835 49.7706 67.1492 50.9091C67.4676 52.0409 67.127 53.0312 66.3688 53.6383L56.8408 61.2779C56.1127 61.7975 55.0978 61.9396 54.0629 61.5585C52.9643 61.157 52.1326 60.223 51.8579 59.1599C51.5846 58.1141 51.8995 57.0601 52.6352 56.4738L63.1976 48.0497ZM60.1204 39.895C61.4883 40.4014 62.5837 41.5824 62.9338 42.9053C63.286 44.232 62.8805 45.4579 61.9583 46.2005L51.3684 54.6632C50.4395 55.4028 49.0758 55.5986 47.7117 55.0846C46.3242 54.5679 45.3101 53.4805 44.9556 52.137C44.6195 50.895 44.9055 49.5544 45.7787 48.8588L56.4538 40.3197C57.4761 39.5072 59.0943 39.516 60.1204 39.895ZM53.1034 32.3973C54.4675 32.9113 55.5637 34.0789 55.9168 35.4075C56.2695 36.7352 55.861 37.9552 54.9321 38.6949L44.3416 47.1566C43.4194 47.8992 42.0552 48.0941 40.6886 47.5752C39.3022 47.0604 38.2911 45.9789 37.9376 44.6372C37.5797 43.3143 37.984 42.1009 38.9126 41.3411L49.4405 32.8143C50.4132 32.0252 52.0018 32.0269 53.1034 32.3973ZM8.68821 24.5193C10.2872 23.7085 13.386 23.6314 15.1302 24.5479C19.9475 27.0814 22.5471 31.2424 26.7483 37.7692C27.1195 38.3368 27.9589 38.4631 28.5045 38.0264L58.0653 14.2749C59.0589 13.4765 59.9703 13.2674 60.7803 13.3376C61.5898 13.4092 62.3431 13.7948 62.8864 14.3831C63.9814 15.5583 64.295 17.3259 62.3891 18.9449L37.3854 39.733C35.7658 41.0436 35.1322 43.1294 35.6725 45.1499C36.2067 47.1539 37.7407 48.7971 39.8073 49.5752C40.7362 49.9239 41.7199 50.0546 42.6606 49.9875C42.4559 50.843 42.4515 51.7579 42.6935 52.6578C43.2252 54.657 44.7617 56.3051 46.8346 57.0803C47.7232 57.4136 48.6518 57.5452 49.5538 57.4954C49.4042 58.1949 49.4084 58.9342 49.5939 59.6649C50.0451 61.3971 51.4064 62.9005 53.1986 63.564C53.3884 63.6329 53.5835 63.6826 53.7787 63.7324L51.4619 65.5845C47.2004 69.0108 44.911 70.6716 43.2305 71.4425C41.5505 72.2144 40.378 72.2184 37.7943 72.2687C32.559 72.3629 27.6811 69.3911 23.907 64.9916C20.1313 60.5987 17.5469 54.8318 16.8846 49.8111L15.4512 38.9735C14.9179 34.9547 12.7309 31.6399 9.07264 28.4068C7.74283 27.2318 7.45352 26.3721 7.49871 25.8674C7.53817 25.364 7.88433 24.9237 8.68821 24.5193ZM7.56901 22.6282C6.32624 23.2591 5.28347 24.3183 5.16832 25.704C5.05931 27.0965 5.85534 28.5239 7.46437 29.9533C10.8925 32.9911 12.684 35.7683 13.1473 39.2398L14.5689 50.0696C15.293 55.5579 18.0263 61.604 22.0879 66.3354C26.1563 71.0697 31.6303 74.5333 37.8321 74.4141C40.409 74.3656 42.1629 74.3255 44.2615 73.3672C46.3611 72.4084 48.6954 70.6536 52.9841 67.215L67.8999 55.2613C71.5327 52.3518 68.7335 46.3351 64.8817 46.0791C67.0522 41.1779 61.78 36.878 58.203 37.5179C59.4204 34.0439 55.9701 30.4492 52.6697 30.1023L63.9675 20.5276C66.6804 18.2296 66.4615 14.9362 64.6527 12.9854C63.7529 12.015 62.4722 11.3276 61.01 11.1928C59.5484 11.059 57.9473 11.5211 56.5478 12.6458L27.9994 35.5881C24.2344 29.7237 21.3877 25.3621 16.2871 22.6822C13.6175 21.2782 10.0544 21.3784 7.56901 22.6282Z" fill="#003580"/>
<path d="M32.022 3.12891C31.4962 3.38097 31.1901 3.89117 31.2324 4.43547L31.9763 15.7731C32.0217 16.5182 32.7133 17.0832 33.5185 17.0429C34.3258 17.0003 34.9409 16.3561 34.8967 15.6134L34.149 4.26848C34.1008 3.28941 32.971 2.67968 32.022 3.12891Z" fill="#BCBF33"/>
<path d="M18.507 7.24081C17.7878 7.57207 17.4946 8.38205 17.8535 9.04813L23.0558 18.9901C23.3704 19.7045 24.2817 20.0242 25.0361 19.6951C25.7892 19.3576 26.0836 18.5067 25.6871 17.8275L20.481 7.87822C20.1354 7.1912 19.2412 6.9043 18.507 7.24081Z" fill="#5491E7"/>
<path d="M45.9974 5.81394C45.6633 5.98016 45.406 6.24975 45.2874 6.58603L41.4159 17.0048C41.1515 17.709 41.5547 18.4781 42.3216 18.7202C43.0833 18.9646 43.914 18.5833 44.1753 17.873L48.0511 7.46273C48.4846 6.30827 47.1741 5.25818 45.9974 5.81394Z" fill="#F91818"/>
</svg>
