<svg width="160" height="34" viewBox="0 0 160 34" fill="none" xmlns="http://www.w3.org/2000/svg">
<path d="M8.86036 26.1929C13.6462 26.1929 17.3973 23.5412 17.3973 19.208C17.3973 14.5515 13.7109 13.5491 9.92748 12.6113C6.43508 11.7382 5.33562 11.0914 5.33562 9.76562C5.33562 8.56915 6.56443 7.21099 8.86036 7.21099C10.8329 7.21099 12.2881 8.24577 12.7731 9.83029L16.9123 8.47213C15.8128 5.14141 12.9025 2.91016 8.73101 2.91016C4.65654 2.91016 0.743753 5.59413 0.743753 9.86263C0.743753 13.9371 4.30083 15.5216 7.66389 16.2977C11.1563 17.1061 12.8378 17.3972 12.8378 19.2727C12.8378 20.5662 11.6413 21.892 9.02204 21.892C6.49975 21.892 5.01225 20.9542 4.17148 19.014L0 20.3722C1.22881 23.7676 4.43018 26.1929 8.86036 26.1929Z" fill="white"/>
<path d="M29.9684 9.37757H26.5083V4.13896H22.2075V9.37757H19.1031V13.258H22.2075V25.8695H26.5083V13.258H29.9684V9.37757Z" fill="white"/>
<path d="M44.8111 9.37757V11.2855C43.2913 9.99198 41.3834 9.21589 39.3461 9.21589C34.8189 9.21589 31.4559 12.9993 31.4559 17.7205C31.4559 22.4094 34.8189 26.1929 39.3461 26.1929C41.3834 26.1929 43.2913 25.4168 44.8111 24.1233V25.8695H49.1119V9.37757H44.8111ZM40.2516 22.5388C37.6323 22.5388 35.7244 20.4045 35.7244 17.7205C35.7244 15.0042 37.6323 12.87 40.2516 12.87C42.8062 12.87 44.7788 15.0042 44.7788 17.7205C44.7788 20.4045 42.8062 22.5388 40.2516 22.5388Z" fill="white"/>
<path d="M64.7833 9.37757L60.3531 20.5339L55.7936 9.37757H51.3311L58.1542 26.1282L56.602 30.0733H52.4629V33.9537H59.5123L69.2458 9.37757H64.7833Z" fill="white"/>
<path d="M79.3096 26.193C84.0955 26.193 87.8466 23.5414 87.8466 19.2082C87.8466 14.5517 84.1601 13.5492 80.3767 12.6115C76.8843 11.7384 75.7848 11.0916 75.7848 9.7658C75.7848 8.56932 77.0136 7.21117 79.3096 7.21117C81.2821 7.21117 82.7373 8.24595 83.2224 9.83047L87.3615 8.47231C86.262 5.14159 83.3517 2.91034 79.1802 2.91034C75.1058 2.91034 71.193 5.59431 71.193 9.86281C71.193 13.9373 74.75 15.5218 78.1131 16.2979C81.6055 17.1063 83.287 17.3973 83.287 19.2729C83.287 20.5664 82.0906 21.8922 79.4713 21.8922C76.949 21.8922 75.4615 20.9544 74.6207 19.0142L70.4492 20.3724C71.678 23.7677 74.8794 26.193 79.3096 26.193Z" fill="#BAC1DB"/>
<path d="M100.418 9.37775H96.9575V4.13914H92.6567V9.37775H89.5523V13.2582H92.6567V25.8697H96.9575V13.2582H100.418V9.37775Z" fill="#BAC1DB"/>
<path d="M114.864 9.37775V16.5889C114.864 20.146 113.538 21.8275 110.951 21.8275C108.494 21.8275 107.135 20.243 107.135 16.5889V9.37775H102.835V17.8177C102.835 24.3822 106.974 26.0313 109.916 26.0313C111.954 26.0313 113.635 25.1906 114.864 23.8001V25.8697H119.132V9.37775H114.864Z" fill="#BAC1DB"/>
<path d="M135.345 0V11.2856C133.825 9.99215 131.917 9.21606 129.88 9.21606C125.353 9.21606 121.989 12.9995 121.989 17.7207C121.989 22.4096 125.353 26.193 129.88 26.193C131.917 26.193 133.825 25.4169 135.345 24.1235V25.8697H139.646V0H135.345ZM130.785 22.5389C128.166 22.5389 126.258 20.4047 126.258 17.7207C126.258 15.0044 128.166 12.8702 130.785 12.8702C133.34 12.8702 135.312 15.0044 135.312 17.7207C135.312 20.4047 133.34 22.5389 130.785 22.5389Z" fill="#BAC1DB"/>
<path d="M155.538 9.37775L151.108 20.534L146.548 9.37775H142.086L148.909 26.1284L147.357 30.0735H70.5328V33.9539H150.267L160 9.37775H155.538Z" fill="#BAC1DB"/>
</svg>
